<svg width="920" height="281" viewBox="0 0 920 281" fill="none" xmlns="http://www.w3.org/2000/svg">
<rect width="920" height="281" rx="32" fill="#0078D4"/>
<path d="M466.587 122.476V134H426.769V74.402H440.185V122.476H466.587ZM487.182 134H474.368V88.764H487.182V134ZM488.386 75.692C488.386 78.0427 487.612 79.906 486.064 81.282C484.573 82.6007 482.796 83.26 480.732 83.26C478.668 83.26 476.862 82.6007 475.314 81.282C473.823 79.906 473.078 78.0427 473.078 75.692C473.078 73.3413 473.823 71.5067 475.314 70.188C476.862 68.812 478.668 68.124 480.732 68.124C482.796 68.124 484.573 68.812 486.064 70.188C487.612 71.5067 488.386 73.3413 488.386 75.692ZM499.227 90.312C501.406 89.6813 504.215 89.108 507.655 88.592C511.095 88.0187 514.707 87.732 518.491 87.732C522.332 87.732 525.514 88.248 528.037 89.28C530.617 90.2547 532.652 91.6593 534.143 93.494C535.634 95.3287 536.694 97.5073 537.325 100.03C537.956 102.553 538.271 105.362 538.271 108.458V134H525.457V110.006C525.457 105.878 524.912 102.954 523.823 101.234C522.734 99.514 520.698 98.654 517.717 98.654C516.8 98.654 515.825 98.7113 514.793 98.826C513.761 98.8833 512.844 98.9693 512.041 99.084V134H499.227V90.312ZM588.484 132.452C586.305 133.083 583.496 133.656 580.056 134.172C576.616 134.745 573.004 135.032 569.22 135.032C565.378 135.032 562.168 134.516 559.588 133.484C557.065 132.452 555.058 131.019 553.568 129.184C552.077 127.292 551.016 125.056 550.386 122.476C549.755 119.896 549.44 117.058 549.44 113.962V88.764H562.254V112.414C562.254 116.542 562.798 119.523 563.888 121.358C564.977 123.193 567.012 124.11 569.994 124.11C570.911 124.11 571.886 124.081 572.918 124.024C573.95 123.909 574.867 123.795 575.67 123.68V88.764H588.484V132.452ZM618.486 102.524L627.43 88.764H640.674L625.194 110.522C628.634 114.822 631.759 119.007 634.568 123.078C637.378 127.149 639.614 130.789 641.276 134H627.516C627.058 133.14 626.484 132.079 625.796 130.818C625.108 129.499 624.334 128.152 623.474 126.776C622.614 125.343 621.697 123.938 620.722 122.562C619.805 121.129 618.888 119.839 617.97 118.692C617.11 119.781 616.222 120.985 615.304 122.304C614.444 123.623 613.613 124.97 612.81 126.346C612.008 127.665 611.205 128.983 610.402 130.302C609.657 131.621 608.998 132.853 608.424 134H595.352C596.04 132.567 596.986 130.875 598.19 128.926C599.394 126.977 600.684 124.97 602.06 122.906C603.494 120.785 604.984 118.692 606.532 116.628C608.08 114.507 609.6 112.529 611.09 110.694C608.51 107.082 605.93 103.441 603.35 99.772C600.77 96.0453 598.219 92.376 595.696 88.764H609.542L618.486 102.524ZM464.624 199.078C465.255 199.135 465.971 199.193 466.774 199.25C467.634 199.25 468.637 199.25 469.784 199.25C476.492 199.25 481.451 197.559 484.662 194.176C487.93 190.793 489.564 186.121 489.564 180.158C489.564 173.909 488.016 169.179 484.92 165.968C481.824 162.757 476.922 161.152 470.214 161.152C469.297 161.152 468.351 161.181 467.376 161.238C466.401 161.238 465.484 161.295 464.624 161.41V199.078ZM503.41 180.158C503.41 185.318 502.607 189.819 501.002 193.66C499.397 197.501 497.103 200.683 494.122 203.206C491.198 205.729 487.615 207.621 483.372 208.882C479.129 210.143 474.371 210.774 469.096 210.774C466.688 210.774 463.879 210.659 460.668 210.43C457.457 210.258 454.304 209.857 451.208 209.226V151.176C454.304 150.603 457.515 150.23 460.84 150.058C464.223 149.829 467.118 149.714 469.526 149.714C474.629 149.714 479.244 150.287 483.372 151.434C487.557 152.581 491.141 154.387 494.122 156.852C497.103 159.317 499.397 162.471 501.002 166.312C502.607 170.153 503.41 174.769 503.41 180.158ZM514.616 210V150.402H554.864V161.668H528.032V173.364H551.854V184.372H528.032V198.734H556.842V210H514.616ZM586.637 210.774C583.369 210.774 580.101 210.659 576.833 210.43C573.622 210.258 570.268 209.799 566.771 209.054V151.262C569.523 150.746 572.533 150.373 575.801 150.144C579.069 149.857 582.107 149.714 584.917 149.714C588.701 149.714 592.169 150.001 595.323 150.574C598.533 151.09 601.285 152.007 603.579 153.326C605.872 154.645 607.649 156.393 608.911 158.572C610.229 160.693 610.889 163.331 610.889 166.484C610.889 171.243 608.595 174.998 604.009 177.75C607.793 179.183 610.373 181.133 611.749 183.598C613.125 186.063 613.813 188.844 613.813 191.94C613.813 198.189 611.519 202.891 606.933 206.044C602.403 209.197 595.638 210.774 586.637 210.774ZM579.843 184.028V199.422C580.817 199.537 581.878 199.623 583.025 199.68C584.171 199.737 585.433 199.766 586.809 199.766C590.822 199.766 594.061 199.193 596.527 198.046C598.992 196.899 600.225 194.778 600.225 191.682C600.225 188.93 599.193 186.981 597.129 185.834C595.065 184.63 592.112 184.028 588.271 184.028H579.843ZM579.843 173.794H586.379C590.507 173.794 593.459 173.278 595.237 172.246C597.014 171.157 597.903 169.437 597.903 167.086C597.903 164.678 596.985 162.987 595.151 162.012C593.316 161.037 590.621 160.55 587.067 160.55C585.92 160.55 584.687 160.579 583.369 160.636C582.05 160.636 580.875 160.693 579.843 160.808V173.794Z" fill="white"/>
<path d="M46.1727 103.934C46.7651 102.046 47.3645 99.5869 47.8454 97.0788L47.9151 96.619C44.8693 100.451 46.4375 101.231 46.1727 103.844V103.934ZM51.6649 80.7693C52.2713 85.7297 47.9221 87.7362 52.6198 84.4269C55.2335 78.6792 51.6649 82.8594 51.7486 80.7693H51.6649ZM133.916 37.045C136.195 36.6131 139.032 36.2438 141.904 36.0209L142.19 36C138.969 36.2647 135.742 36.4389 132.606 36.8709L133.916 37.045ZM209.302 130.234L208.696 131.537C207.685 138.72 205.573 145.213 202.528 151.142L202.688 150.801C205.978 144.851 208.285 137.898 209.191 130.513L209.219 130.234H209.302ZM113.976 150.975C112.909 149.672 112.003 148.181 111.32 146.565L111.271 146.446C112.205 149.365 113.474 151.908 115.077 154.2L115.014 154.11L113.969 150.975H113.976ZM108.574 151.239L108.142 153.678C110.219 157.001 112.519 159.878 115.112 162.47C113.021 158.381 111.452 156.722 108.581 151.149L108.574 151.239ZM194.652 126.319C194.456 131.105 193.258 135.571 191.257 139.563L191.341 139.375L188.295 140.949C185.856 145.652 188.56 143.994 186.818 147.742C182.622 151.887 178.008 155.615 173.045 158.861L172.711 159.07C170.961 159.07 173.93 156.897 174.362 156.109C169.212 159.593 170.174 161.335 162.423 163.508L162.158 162.986C158.896 164.1 155.133 164.748 151.222 164.748C131.993 164.748 116.401 149.163 116.401 129.942C116.401 129.802 116.401 129.656 116.401 129.517V129.538C116.143 131.015 115.795 130.666 115.356 131.279C115.286 130.499 115.244 129.593 115.244 128.674C115.244 116.468 122.318 105.906 132.599 100.883L132.78 100.799C136.614 98.8275 141.144 97.678 145.939 97.678C153.369 97.678 160.158 100.444 165.316 105.007L165.288 104.979C159.914 98.0611 151.592 93.6511 142.245 93.6511C142.015 93.6511 141.785 93.6511 141.555 93.6581H141.59C131.714 93.7486 123.127 99.1758 118.569 107.195L118.499 107.327C113.272 110.636 112.665 120.125 110.4 121.79C109.926 124.138 109.654 126.834 109.654 129.593C109.654 145.095 118.241 158.583 130.919 165.577L131.128 165.682C133.477 167.333 131.825 167.507 132.174 168.726C126.932 166.204 122.5 162.805 118.889 158.673L118.847 158.624C120.799 161.683 123.106 164.295 125.762 166.504L125.817 166.546C121.029 164.978 114.756 155.225 112.93 154.793C121.029 169.242 145.856 180.222 158.75 174.815C157.607 174.899 156.276 174.948 154.937 174.948C149.048 174.948 143.381 174.007 138.077 172.266L138.461 172.377C135.589 170.984 131.756 167.939 132.362 167.417C138.147 169.918 144.88 171.367 151.954 171.367C164.054 171.367 175.157 167.117 183.855 160.032L183.765 160.101C187.598 157.057 191.864 151.915 193.083 151.832C191.341 154.618 193.432 153.225 192.038 155.663C195.871 149.393 190.295 153.051 196.046 144.865L198.137 147.735C197.356 142.51 204.584 136.233 203.887 128.04C205.539 125.427 205.629 130.652 203.887 136.484C206.41 130.039 204.584 129.085 205.19 123.776C205.887 125.274 206.57 127.092 207.121 128.966L207.197 129.259C207.093 128.416 207.037 127.434 207.037 126.437C207.037 122.39 207.999 118.565 209.7 115.186L209.637 115.332C208.856 114.9 207.197 117.945 206.849 110.72C206.849 107.501 207.72 108.978 208.069 108.282C206.312 106.247 205.12 103.683 204.765 100.855L204.758 100.785C205.455 99.6566 206.675 103.656 207.72 103.746C206.946 101.057 206.326 97.8591 205.999 94.5777L205.978 94.3408C203.015 88.419 204.932 95.2117 202.493 91.7282C199.531 82.2323 205.106 89.5546 205.455 85.2838C209.17 91.4496 212.118 98.5976 213.902 106.198L214 106.707C212.948 100.876 211.47 95.7342 209.539 90.8225L209.734 91.3869C211.128 91.993 207.469 80.5812 211.561 88.1681C205.95 71.6148 194.638 58.2453 180.015 50.101L179.666 49.9268C181.235 51.4038 183.326 53.3197 182.538 53.5845C176.007 49.6691 177.136 49.4043 176.182 47.7532C170.87 45.5795 170.522 47.9273 166.946 47.7532C160.918 44.625 153.864 41.8034 146.504 39.6855L145.674 39.4834L146.107 41.4829C139.402 39.3093 138.265 42.3538 131.038 41.4829C130.599 41.1346 133.387 40.2637 135.652 39.9154C129.198 40.7863 129.546 38.6962 123.19 40.1801C124.542 39.2605 126.11 38.3339 127.734 37.5049L127.978 37.3934C122.751 37.7417 115.439 40.4379 117.697 37.9995C105.319 42.4722 94.5923 48.3314 84.96 55.5561L85.2806 55.3262L85.0297 53.4103C81.1126 58.1129 67.9605 67.4346 66.915 73.5307L65.7719 73.7885C63.7716 77.2719 62.4612 81.1873 60.8094 84.7683C58.1957 89.2968 56.8923 86.51 57.3245 87.2067C53.6026 94.7728 50.1664 103.739 47.5109 113.04L47.2251 114.217C47.7409 119.032 48.0336 124.619 48.0336 130.276C48.0336 133.077 47.9639 135.864 47.8176 138.629L47.8315 138.239C47.8106 139.013 47.7967 139.925 47.7967 140.845C47.7967 187.851 77.9134 227.827 119.914 242.541L120.667 242.771C126.319 244.185 132.815 245 139.499 245C140.503 245 141.506 244.979 142.496 244.944L142.35 244.951C133.728 242.513 132.592 243.648 124.235 240.687C118.137 237.901 116.833 234.591 112.561 230.85L114.303 233.895C105.849 230.934 109.341 230.237 102.447 228.063L104.273 225.716C100.656 224.399 97.7218 221.919 95.8678 218.742L95.826 218.665L92.8638 218.749C89.2952 214.387 87.3785 211.169 87.5528 208.64L86.5839 210.381C85.4548 208.556 73.3482 193.828 79.6141 197.228C77.8159 195.981 76.3452 194.379 75.2928 192.511L75.2579 192.442L76.4776 190.965C73.9406 188.087 72.0657 184.569 71.1109 180.682L71.076 180.514C71.9891 181.894 73.3482 182.918 74.9443 183.378L74.9931 183.392C67.3262 164.484 66.8941 182.347 61.0464 164.219L62.3497 164.045C61.6249 162.832 60.8652 161.376 60.196 159.871L60.0845 159.6L60.6073 154.375C55.122 147.93 59.039 127.371 59.8266 116.05C62.1825 109.334 64.7683 103.642 67.7862 98.2214L67.4865 98.7996L65.6604 98.4513C69.1453 92.2716 86.0473 73.4471 93.8884 74.4155C97.6312 69.6292 93.1077 74.4155 92.3201 73.1963C100.684 64.5713 103.298 67.1002 108.881 65.5327C114.979 62.0423 103.653 66.9261 106.532 64.2159C116.986 61.6034 113.934 58.1199 127.616 56.8171C129.01 57.688 124.221 58.0363 123.085 59.0813C128.096 57.472 133.854 56.5384 139.834 56.5384C148.156 56.5384 156.06 58.3428 163.176 61.5755L162.82 61.4292C179.492 70.312 191.195 86.6285 193.543 105.829L193.571 106.108L194.268 106.282C194.436 108.261 194.533 110.567 194.533 112.894C194.533 118.906 193.899 124.772 192.693 130.429L192.791 129.879L194.533 126.221L194.652 126.319ZM136.969 39.7482L135.666 40.006L136.885 39.9224V39.7482H136.969ZM133.31 38.7032C135.052 39.0515 137.227 39.3093 136.969 39.7482C138.969 39.3162 139.409 38.8773 133.226 38.7032H133.31ZM171.825 123.978C172.257 117.701 170.606 119.617 170.083 122.055C170.689 122.403 171.212 126.409 171.825 123.971V123.978ZM165.023 141.827C166.933 139.215 168.361 136.114 169.086 132.756L169.114 132.596C168.424 135.014 167.441 137.125 166.187 139.04L166.243 138.95C159.712 143.039 165.636 136.602 166.243 134.073C159.273 142.865 165.288 139.305 165.023 141.827ZM146.371 146.439C142.887 146.439 147.068 148.181 151.606 148.878C152.86 147.937 153.969 146.997 155.014 145.993L155 146.007C153.313 146.397 151.376 146.613 149.389 146.613C148.33 146.613 147.284 146.551 146.253 146.425L146.371 146.439Z" fill="white"/>
</svg>
