<svg width="920" height="281" viewBox="0 0 920 281" fill="none" xmlns="http://www.w3.org/2000/svg">
<rect width="920" height="281" rx="32" fill="#E95420"/>
<path d="M466.587 122.476V134H426.769V74.402H440.185V122.476H466.587ZM487.182 134H474.368V88.764H487.182V134ZM488.386 75.692C488.386 78.0427 487.612 79.906 486.064 81.282C484.573 82.6007 482.796 83.26 480.732 83.26C478.668 83.26 476.862 82.6007 475.314 81.282C473.823 79.906 473.078 78.0427 473.078 75.692C473.078 73.3413 473.823 71.5067 475.314 70.188C476.862 68.812 478.668 68.124 480.732 68.124C482.796 68.124 484.573 68.812 486.064 70.188C487.612 71.5067 488.386 73.3413 488.386 75.692ZM499.227 90.312C501.406 89.6813 504.215 89.108 507.655 88.592C511.095 88.0187 514.707 87.732 518.491 87.732C522.332 87.732 525.514 88.248 528.037 89.28C530.617 90.2547 532.652 91.6593 534.143 93.494C535.634 95.3287 536.694 97.5073 537.325 100.03C537.956 102.553 538.271 105.362 538.271 108.458V134H525.457V110.006C525.457 105.878 524.912 102.954 523.823 101.234C522.734 99.514 520.698 98.654 517.717 98.654C516.8 98.654 515.825 98.7113 514.793 98.826C513.761 98.8833 512.844 98.9693 512.041 99.084V134H499.227V90.312ZM588.484 132.452C586.305 133.083 583.496 133.656 580.056 134.172C576.616 134.745 573.004 135.032 569.22 135.032C565.378 135.032 562.168 134.516 559.588 133.484C557.065 132.452 555.058 131.019 553.568 129.184C552.077 127.292 551.016 125.056 550.386 122.476C549.755 119.896 549.44 117.058 549.44 113.962V88.764H562.254V112.414C562.254 116.542 562.798 119.523 563.888 121.358C564.977 123.193 567.012 124.11 569.994 124.11C570.911 124.11 571.886 124.081 572.918 124.024C573.95 123.909 574.867 123.795 575.67 123.68V88.764H588.484V132.452ZM618.486 102.524L627.43 88.764H640.674L625.194 110.522C628.634 114.822 631.759 119.007 634.568 123.078C637.378 127.149 639.614 130.789 641.276 134H627.516C627.058 133.14 626.484 132.079 625.796 130.818C625.108 129.499 624.334 128.152 623.474 126.776C622.614 125.343 621.697 123.938 620.722 122.562C619.805 121.129 618.888 119.839 617.97 118.692C617.11 119.781 616.222 120.985 615.304 122.304C614.444 123.623 613.613 124.97 612.81 126.346C612.008 127.665 611.205 128.983 610.402 130.302C609.657 131.621 608.998 132.853 608.424 134H595.352C596.04 132.567 596.986 130.875 598.19 128.926C599.394 126.977 600.684 124.97 602.06 122.906C603.494 120.785 604.984 118.692 606.532 116.628C608.08 114.507 609.6 112.529 611.09 110.694C608.51 107.082 605.93 103.441 603.35 99.772C600.77 96.0453 598.219 92.376 595.696 88.764H609.542L618.486 102.524ZM369.797 210C369.166 207.936 368.449 205.815 367.647 203.636C366.901 201.457 366.156 199.279 365.411 197.1H342.191C341.445 199.279 340.671 201.457 339.869 203.636C339.123 205.815 338.435 207.936 337.805 210H323.873C326.109 203.579 328.23 197.645 330.237 192.198C332.243 186.751 334.193 181.62 336.085 176.804C338.034 171.988 339.926 167.43 341.761 163.13C343.653 158.773 345.602 154.53 347.609 150.402H360.423C362.372 154.53 364.293 158.773 366.185 163.13C368.077 167.43 369.969 171.988 371.861 176.804C373.81 181.62 375.788 186.751 377.795 192.198C379.801 197.645 381.923 203.579 384.159 210H369.797ZM353.715 163.904C353.428 164.764 352.998 165.939 352.425 167.43C351.851 168.921 351.192 170.641 350.447 172.59C349.701 174.539 348.87 176.689 347.953 179.04C347.093 181.391 346.204 183.856 345.287 186.436H362.229C361.311 183.856 360.423 181.391 359.563 179.04C358.703 176.689 357.871 174.539 357.069 172.59C356.323 170.641 355.664 168.921 355.091 167.43C354.517 165.939 354.059 164.764 353.715 163.904ZM419.995 187.726C419.995 183.77 419.106 180.617 417.329 178.266C415.552 175.858 412.914 174.654 409.417 174.654C408.27 174.654 407.21 174.711 406.235 174.826C405.26 174.883 404.458 174.969 403.827 175.084V198.218C404.63 198.734 405.662 199.164 406.923 199.508C408.242 199.852 409.56 200.024 410.879 200.024C416.956 200.024 419.995 195.925 419.995 187.726ZM433.067 187.382C433.067 190.879 432.637 194.061 431.777 196.928C430.917 199.795 429.656 202.26 427.993 204.324C426.33 206.388 424.266 207.993 421.801 209.14C419.336 210.287 416.498 210.86 413.287 210.86C411.51 210.86 409.847 210.688 408.299 210.344C406.751 210 405.26 209.513 403.827 208.882V225.91H391.013V166.312C392.16 165.968 393.478 165.653 394.969 165.366C396.46 165.022 398.008 164.735 399.613 164.506C401.276 164.277 402.938 164.105 404.601 163.99C406.321 163.818 407.955 163.732 409.503 163.732C413.23 163.732 416.555 164.305 419.479 165.452C422.403 166.541 424.868 168.118 426.875 170.182C428.882 172.189 430.401 174.654 431.433 177.578C432.522 180.502 433.067 183.77 433.067 187.382ZM471.898 187.726C471.898 183.77 471.009 180.617 469.232 178.266C467.454 175.858 464.817 174.654 461.32 174.654C460.173 174.654 459.112 174.711 458.138 174.826C457.163 174.883 456.36 174.969 455.73 175.084V198.218C456.532 198.734 457.564 199.164 458.826 199.508C460.144 199.852 461.463 200.024 462.782 200.024C468.859 200.024 471.898 195.925 471.898 187.726ZM484.97 187.382C484.97 190.879 484.54 194.061 483.68 196.928C482.82 199.795 481.558 202.26 479.896 204.324C478.233 206.388 476.169 207.993 473.704 209.14C471.238 210.287 468.4 210.86 465.19 210.86C463.412 210.86 461.75 210.688 460.202 210.344C458.654 210 457.163 209.513 455.73 208.882V225.91H442.916V166.312C444.062 165.968 445.381 165.653 446.872 165.366C448.362 165.022 449.91 164.735 451.516 164.506C453.178 164.277 454.841 164.105 456.504 163.99C458.224 163.818 459.858 163.732 461.406 163.732C465.132 163.732 468.458 164.305 471.382 165.452C474.306 166.541 476.771 168.118 478.778 170.182C480.784 172.189 482.304 174.654 483.336 177.578C484.425 180.502 484.97 183.77 484.97 187.382ZM495.678 150.402H509.094V210H495.678V150.402ZM546.883 186.006C546.883 181.878 546.338 178.954 545.249 177.234C544.217 175.514 542.411 174.654 539.831 174.654C539.028 174.654 538.197 174.711 537.337 174.826C536.477 174.883 535.645 174.969 534.843 175.084V210H522.029V166.312C523.118 166.025 524.379 165.739 525.813 165.452C527.303 165.108 528.851 164.821 530.457 164.592C532.119 164.305 533.811 164.105 535.531 163.99C537.251 163.818 538.942 163.732 540.605 163.732C543.873 163.732 546.51 164.162 548.517 165.022C550.581 165.825 552.272 166.799 553.591 167.946C555.425 166.627 557.518 165.595 559.869 164.85C562.277 164.105 564.484 163.732 566.491 163.732C570.103 163.732 573.055 164.248 575.349 165.28C577.699 166.255 579.563 167.659 580.939 169.494C582.315 171.329 583.261 173.507 583.777 176.03C584.293 178.553 584.551 181.362 584.551 184.458V210H571.737V186.006C571.737 181.878 571.192 178.954 570.103 177.234C569.071 175.514 567.265 174.654 564.685 174.654C563.997 174.654 563.022 174.826 561.761 175.17C560.557 175.514 559.553 175.944 558.751 176.46C559.152 177.779 559.41 179.183 559.525 180.674C559.639 182.107 559.697 183.655 559.697 185.318V210H546.883V186.006ZM613.473 201.056C614.734 201.056 615.938 201.027 617.085 200.97C618.232 200.913 619.149 200.827 619.837 200.712V190.994C619.321 190.879 618.547 190.765 617.515 190.65C616.483 190.535 615.537 190.478 614.677 190.478C613.473 190.478 612.326 190.564 611.237 190.736C610.205 190.851 609.288 191.109 608.485 191.51C607.682 191.911 607.052 192.456 606.593 193.144C606.134 193.832 605.905 194.692 605.905 195.724C605.905 197.731 606.564 199.135 607.883 199.938C609.259 200.683 611.122 201.056 613.473 201.056ZM612.441 163.56C616.225 163.56 619.378 163.99 621.901 164.85C624.424 165.71 626.43 166.943 627.921 168.548C629.469 170.153 630.558 172.103 631.189 174.396C631.82 176.689 632.135 179.241 632.135 182.05V208.71C630.3 209.111 627.749 209.57 624.481 210.086C621.213 210.659 617.257 210.946 612.613 210.946C609.689 210.946 607.023 210.688 604.615 210.172C602.264 209.656 600.229 208.825 598.509 207.678C596.789 206.474 595.47 204.926 594.553 203.034C593.636 201.142 593.177 198.82 593.177 196.068C593.177 193.431 593.693 191.195 594.725 189.36C595.814 187.525 597.248 186.063 599.025 184.974C600.802 183.885 602.838 183.111 605.131 182.652C607.424 182.136 609.804 181.878 612.269 181.878C613.932 181.878 615.394 181.964 616.655 182.136C617.974 182.251 619.034 182.423 619.837 182.652V181.448C619.837 179.269 619.178 177.521 617.859 176.202C616.54 174.883 614.247 174.224 610.979 174.224C608.8 174.224 606.65 174.396 604.529 174.74C602.408 175.027 600.573 175.457 599.025 176.03L597.391 165.71C598.136 165.481 599.054 165.251 600.143 165.022C601.29 164.735 602.522 164.506 603.841 164.334C605.16 164.105 606.536 163.933 607.969 163.818C609.46 163.646 610.95 163.56 612.441 163.56ZM654.644 185.92C654.644 193.087 657.539 196.67 663.33 196.67C664.649 196.67 665.881 196.498 667.028 196.154C668.175 195.81 669.149 195.409 669.952 194.95V174.482C669.321 174.367 668.576 174.281 667.716 174.224C666.856 174.109 665.853 174.052 664.706 174.052C661.323 174.052 658.801 175.17 657.138 177.406C655.475 179.642 654.644 182.48 654.644 185.92ZM682.766 204.324C682.766 211.72 680.874 217.195 677.09 220.75C673.363 224.362 667.573 226.168 659.718 226.168C656.966 226.168 654.214 225.91 651.462 225.394C648.71 224.935 646.159 224.305 643.808 223.502L646.044 212.752C648.051 213.555 650.143 214.185 652.322 214.644C654.558 215.103 657.081 215.332 659.89 215.332C663.559 215.332 666.139 214.529 667.63 212.924C669.178 211.319 669.952 209.255 669.952 206.732V205.098C668.576 205.729 667.143 206.216 665.652 206.56C664.219 206.847 662.642 206.99 660.922 206.99C654.673 206.99 649.885 205.155 646.56 201.486C643.235 197.759 641.572 192.571 641.572 185.92C641.572 182.595 642.088 179.585 643.12 176.89C644.152 174.138 645.643 171.787 647.592 169.838C649.599 167.889 652.035 166.398 654.902 165.366C657.769 164.277 661.008 163.732 664.62 163.732C666.168 163.732 667.745 163.818 669.35 163.99C671.013 164.105 672.647 164.277 674.252 164.506C675.857 164.735 677.377 165.022 678.81 165.366C680.301 165.653 681.619 165.968 682.766 166.312V204.324ZM692.635 187.726C692.635 183.713 693.237 180.215 694.441 177.234C695.702 174.195 697.336 171.673 699.343 169.666C701.349 167.659 703.643 166.14 706.223 165.108C708.86 164.076 711.555 163.56 714.307 163.56C720.728 163.56 725.802 165.538 729.529 169.494C733.255 173.393 735.119 179.155 735.119 186.78C735.119 187.525 735.09 188.357 735.033 189.274C734.975 190.134 734.918 190.908 734.861 191.596H705.793C706.079 194.233 707.312 196.326 709.491 197.874C711.669 199.422 714.593 200.196 718.263 200.196C720.613 200.196 722.907 199.995 725.143 199.594C727.436 199.135 729.299 198.591 730.733 197.96L732.453 208.366C731.765 208.71 730.847 209.054 729.701 209.398C728.554 209.742 727.264 210.029 725.831 210.258C724.455 210.545 722.964 210.774 721.359 210.946C719.753 211.118 718.148 211.204 716.543 211.204C712.472 211.204 708.917 210.602 705.879 209.398C702.897 208.194 700.403 206.56 698.397 204.496C696.447 202.375 694.985 199.881 694.011 197.014C693.093 194.147 692.635 191.051 692.635 187.726ZM722.735 182.824C722.677 181.735 722.477 180.674 722.133 179.642C721.846 178.61 721.359 177.693 720.671 176.89C720.04 176.087 719.209 175.428 718.177 174.912C717.202 174.396 715.969 174.138 714.479 174.138C713.045 174.138 711.813 174.396 710.781 174.912C709.749 175.371 708.889 176.001 708.201 176.804C707.513 177.607 706.968 178.553 706.567 179.642C706.223 180.674 705.965 181.735 705.793 182.824H722.735Z" fill="white"/>
<path fill-rule="evenodd" clip-rule="evenodd" d="M172.536 79.5814C181.205 84.4009 192.287 81.5444 197.289 73.1906C202.29 64.8368 199.329 54.159 190.659 49.3395C181.99 44.52 170.908 47.3857 165.897 55.7395C160.905 64.084 163.876 74.7619 172.536 79.5814ZM135.446 192.515C127.473 192.515 119.912 190.805 113.145 187.772L100.543 209.519C111.066 214.537 122.913 217.372 135.446 217.372C142.733 217.372 149.784 216.399 156.482 214.613C157.659 207.592 161.984 201.137 168.868 197.3C175.763 193.464 183.716 193.093 190.61 195.598C204.007 182.897 212.725 165.622 214 146.391L188.169 146.022C185.795 172.085 163.102 192.515 135.446 192.515ZM135.446 90.4849C163.102 90.4849 185.795 110.915 188.169 136.978L214 136.609C212.725 117.369 204.007 100.094 190.601 87.3933C183.716 89.907 175.753 89.5223 168.868 85.7045C161.984 81.8678 157.659 75.4039 156.472 68.3826C149.774 66.606 142.733 65.6325 135.436 65.6325C122.913 65.6325 111.066 68.468 100.543 73.4859L113.145 95.2283C119.912 92.1854 127.473 90.4849 135.446 90.4849ZM82.4983 141.495C82.4983 124.24 91.403 108.988 105.015 99.7549L91.7561 78.3724C75.8982 88.5879 64.1003 104.199 59.1968 122.476C64.9241 126.974 68.5822 133.822 68.5822 141.495C68.5822 149.169 64.9241 156.022 59.1968 160.52C64.1003 178.806 75.8982 194.417 91.7561 204.632L105.015 183.236C91.403 174.003 82.4983 158.761 82.4983 141.495ZM172.546 203.414C163.876 208.234 160.905 218.912 165.906 227.265C170.908 235.619 181.99 238.48 190.659 233.651C199.329 228.832 202.3 218.154 197.289 209.8C192.287 201.456 181.205 198.595 172.546 203.414ZM43.133 124.035C33.1201 124.035 25 131.847 25 141.495C25 151.144 33.1201 158.96 43.133 158.96C53.1459 158.96 61.2564 151.144 61.2564 141.495C61.2564 131.847 53.1459 124.035 43.133 124.035Z" fill="white"/>
</svg>
