<svg width="920" height="281" viewBox="0 0 920 281" fill="none" xmlns="http://www.w3.org/2000/svg">
<rect width="920" height="281" rx="32" fill="#EE0000"/>
<path d="M466.587 122.476V134H426.769V74.402H440.185V122.476H466.587ZM487.182 134H474.368V88.764H487.182V134ZM488.386 75.692C488.386 78.0427 487.612 79.906 486.064 81.282C484.573 82.6007 482.796 83.26 480.732 83.26C478.668 83.26 476.862 82.6007 475.314 81.282C473.823 79.906 473.078 78.0427 473.078 75.692C473.078 73.3413 473.823 71.5067 475.314 70.188C476.862 68.812 478.668 68.124 480.732 68.124C482.796 68.124 484.573 68.812 486.064 70.188C487.612 71.5067 488.386 73.3413 488.386 75.692ZM499.227 90.312C501.406 89.6813 504.215 89.108 507.655 88.592C511.095 88.0187 514.707 87.732 518.491 87.732C522.332 87.732 525.514 88.248 528.037 89.28C530.617 90.2547 532.652 91.6593 534.143 93.494C535.634 95.3287 536.694 97.5073 537.325 100.03C537.956 102.553 538.271 105.362 538.271 108.458V134H525.457V110.006C525.457 105.878 524.912 102.954 523.823 101.234C522.734 99.514 520.698 98.654 517.717 98.654C516.8 98.654 515.825 98.7113 514.793 98.826C513.761 98.8833 512.844 98.9693 512.041 99.084V134H499.227V90.312ZM588.484 132.452C586.305 133.083 583.496 133.656 580.056 134.172C576.616 134.745 573.004 135.032 569.22 135.032C565.378 135.032 562.168 134.516 559.588 133.484C557.065 132.452 555.058 131.019 553.568 129.184C552.077 127.292 551.016 125.056 550.386 122.476C549.755 119.896 549.44 117.058 549.44 113.962V88.764H562.254V112.414C562.254 116.542 562.798 119.523 563.888 121.358C564.977 123.193 567.012 124.11 569.994 124.11C570.911 124.11 571.886 124.081 572.918 124.024C573.95 123.909 574.867 123.795 575.67 123.68V88.764H588.484V132.452ZM618.486 102.524L627.43 88.764H640.674L625.194 110.522C628.634 114.822 631.759 119.007 634.568 123.078C637.378 127.149 639.614 130.789 641.276 134H627.516C627.058 133.14 626.484 132.079 625.796 130.818C625.108 129.499 624.334 128.152 623.474 126.776C622.614 125.343 621.697 123.938 620.722 122.562C619.805 121.129 618.888 119.839 617.97 118.692C617.11 119.781 616.222 120.985 615.304 122.304C614.444 123.623 613.613 124.97 612.81 126.346C612.008 127.665 611.205 128.983 610.402 130.302C609.657 131.621 608.998 132.853 608.424 134H595.352C596.04 132.567 596.986 130.875 598.19 128.926C599.394 126.977 600.684 124.97 602.06 122.906C603.494 120.785 604.984 118.692 606.532 116.628C608.08 114.507 609.6 112.529 611.09 110.694C608.51 107.082 605.93 103.441 603.35 99.772C600.77 96.0453 598.219 92.376 595.696 88.764H609.542L618.486 102.524ZM460.394 149.714C469.338 149.714 476.189 151.319 480.948 154.53C485.706 157.683 488.086 162.614 488.086 169.322C488.086 173.507 487.111 176.919 485.162 179.556C483.27 182.136 480.518 184.171 476.906 185.662C478.11 187.153 479.371 188.873 480.69 190.822C482.008 192.714 483.298 194.721 484.56 196.842C485.878 198.906 487.14 201.085 488.344 203.378C489.548 205.614 490.666 207.821 491.698 210H476.648C475.558 208.051 474.44 206.073 473.294 204.066C472.204 202.059 471.058 200.11 469.854 198.218C468.707 196.326 467.56 194.549 466.414 192.886C465.267 191.166 464.12 189.618 462.974 188.242H456.352V210H442.936V151.262C445.86 150.689 448.87 150.287 451.966 150.058C455.119 149.829 457.928 149.714 460.394 149.714ZM461.168 161.152C460.193 161.152 459.304 161.181 458.502 161.238C457.756 161.295 457.04 161.353 456.352 161.41V177.578H460.136C465.181 177.578 468.793 176.947 470.972 175.686C473.15 174.425 474.24 172.275 474.24 169.236C474.24 166.312 473.122 164.248 470.886 163.044C468.707 161.783 465.468 161.152 461.168 161.152ZM518.185 149.714C527.072 149.714 533.894 151.291 538.653 154.444C543.412 157.54 545.791 162.643 545.791 169.752C545.791 176.919 543.383 182.107 538.567 185.318C533.751 188.471 526.871 190.048 517.927 190.048H513.713V210H500.297V151.262C503.221 150.689 506.317 150.287 509.585 150.058C512.853 149.829 515.72 149.714 518.185 149.714ZM519.045 161.152C518.07 161.152 517.096 161.181 516.121 161.238C515.204 161.295 514.401 161.353 513.713 161.41V178.61H517.927C522.571 178.61 526.068 177.979 528.419 176.718C530.77 175.457 531.945 173.106 531.945 169.666C531.945 168.003 531.63 166.627 530.999 165.538C530.426 164.449 529.566 163.589 528.419 162.958C527.33 162.27 525.982 161.811 524.377 161.582C522.772 161.295 520.994 161.152 519.045 161.152ZM571.467 150.402C572.499 152.294 573.674 154.645 574.993 157.454C576.369 160.206 577.773 163.216 579.207 166.484C580.697 169.695 582.159 172.991 583.593 176.374C585.026 179.757 586.373 182.939 587.635 185.92C588.896 182.939 590.243 179.757 591.677 176.374C593.11 172.991 594.543 169.695 595.977 166.484C597.467 163.216 598.872 160.206 600.191 157.454C601.567 154.645 602.771 152.294 603.803 150.402H616.015C616.588 154.358 617.104 158.801 617.563 163.732C618.079 168.605 618.509 173.708 618.853 179.04C619.254 184.315 619.598 189.618 619.885 194.95C620.229 200.282 620.515 205.299 620.745 210H607.673C607.501 204.209 607.271 197.903 606.985 191.08C606.698 184.257 606.268 177.377 605.695 170.44C604.663 172.848 603.516 175.514 602.255 178.438C600.993 181.362 599.732 184.286 598.471 187.21C597.267 190.134 596.091 192.943 594.945 195.638C593.798 198.275 592.823 200.54 592.021 202.432H582.647C581.844 200.54 580.869 198.275 579.723 195.638C578.576 192.943 577.372 190.134 576.111 187.21C574.907 184.286 573.674 181.362 572.413 178.438C571.151 175.514 570.005 172.848 568.973 170.44C568.399 177.377 567.969 184.257 567.683 191.08C567.396 197.903 567.167 204.209 566.995 210H553.923C554.152 205.299 554.41 200.282 554.697 194.95C555.041 189.618 555.385 184.315 555.729 179.04C556.13 173.708 556.56 168.605 557.019 163.732C557.535 158.801 558.079 154.358 558.653 150.402H571.467Z" fill="white"/>
<path d="M203.829 140.509C204.813 143.884 205.515 147.816 205.79 151.871L205.797 152.044C205.797 167.989 187.861 176.836 164.267 176.836C110.965 176.872 64.2684 145.662 64.2684 125.048C64.2684 125.034 64.2684 125.012 64.2684 125.012C64.2684 122.005 64.8979 119.15 66.041 116.563L65.9904 116.7C46.8314 117.654 22 121.08 22 142.966C22 178.816 107.036 223 174.36 223C225.984 223 239 199.676 239 181.274C239 166.775 226.461 150.338 203.858 140.523L203.829 140.509ZM166.749 153.511C181.009 153.511 201.652 150.57 201.652 133.62C201.659 133.476 201.659 133.31 201.659 133.136C201.659 131.929 201.521 130.751 201.268 129.623L201.29 129.732L192.788 92.877C190.835 84.7673 189.12 81.0883 174.867 73.9761C162.682 67.5506 148.552 62.3826 133.684 59.1952L132.591 59C125.963 59 124.032 67.5433 116.116 67.5433C108.505 67.5433 102.854 61.1684 95.7273 61.1684C88.8828 61.1684 84.4258 65.8231 80.9891 75.4C80.9891 75.4 71.4024 102.403 70.1651 106.328C69.9987 106.906 69.9047 107.571 69.9047 108.258C69.9047 108.359 69.9047 108.46 69.9119 108.561V108.547C69.9119 119.042 111.298 153.475 166.749 153.475V153.511Z" fill="white"/>
</svg>
