<svg width="920" height="281" viewBox="0 0 920 281" fill="none" xmlns="http://www.w3.org/2000/svg">
<rect width="920" height="281" rx="32" fill="black"/>
<path d="M420.528 110.006C420.528 105.878 419.984 102.954 418.894 101.234C417.862 99.514 416.056 98.654 413.476 98.654C412.674 98.654 411.842 98.7113 410.982 98.826C410.122 98.8833 409.291 98.9693 408.488 99.084V134H395.674V90.312C396.764 90.0253 398.025 89.7387 399.458 89.452C400.949 89.108 402.497 88.8213 404.102 88.592C405.765 88.3053 407.456 88.1047 409.176 87.99C410.896 87.818 412.588 87.732 414.25 87.732C417.518 87.732 420.156 88.162 422.162 89.022C424.226 89.8247 425.918 90.7993 427.236 91.946C429.071 90.6273 431.164 89.5953 433.514 88.85C435.922 88.1047 438.13 87.732 440.136 87.732C443.748 87.732 446.701 88.248 448.994 89.28C451.345 90.2547 453.208 91.6593 454.584 93.494C455.96 95.3287 456.906 97.5073 457.422 100.03C457.938 102.553 458.196 105.362 458.196 108.458V134H445.382V110.006C445.382 105.878 444.838 102.954 443.748 101.234C442.716 99.514 440.91 98.654 438.33 98.654C437.642 98.654 436.668 98.826 435.406 99.17C434.202 99.514 433.199 99.944 432.396 100.46C432.798 101.779 433.056 103.183 433.17 104.674C433.285 106.107 433.342 107.655 433.342 109.318V134H420.528V110.006ZM487.119 125.056C488.38 125.056 489.584 125.027 490.731 124.97C491.877 124.913 492.795 124.827 493.483 124.712V114.994C492.967 114.879 492.193 114.765 491.161 114.65C490.129 114.535 489.183 114.478 488.323 114.478C487.119 114.478 485.972 114.564 484.883 114.736C483.851 114.851 482.933 115.109 482.131 115.51C481.328 115.911 480.697 116.456 480.239 117.144C479.78 117.832 479.551 118.692 479.551 119.724C479.551 121.731 480.21 123.135 481.529 123.938C482.905 124.683 484.768 125.056 487.119 125.056ZM486.087 87.56C489.871 87.56 493.024 87.99 495.547 88.85C498.069 89.71 500.076 90.9427 501.567 92.548C503.115 94.1533 504.204 96.1027 504.835 98.396C505.465 100.689 505.781 103.241 505.781 106.05V132.71C503.946 133.111 501.395 133.57 498.127 134.086C494.859 134.659 490.903 134.946 486.259 134.946C483.335 134.946 480.669 134.688 478.261 134.172C475.91 133.656 473.875 132.825 472.155 131.678C470.435 130.474 469.116 128.926 468.199 127.034C467.281 125.142 466.823 122.82 466.823 120.068C466.823 117.431 467.339 115.195 468.371 113.36C469.46 111.525 470.893 110.063 472.671 108.974C474.448 107.885 476.483 107.111 478.777 106.652C481.07 106.136 483.449 105.878 485.914 105.878C487.577 105.878 489.039 105.964 490.301 106.136C491.619 106.251 492.68 106.423 493.483 106.652V105.448C493.483 103.269 492.823 101.521 491.505 100.202C490.186 98.8833 487.893 98.224 484.625 98.224C482.446 98.224 480.296 98.396 478.175 98.74C476.053 99.0267 474.219 99.4567 472.671 100.03L471.037 89.71C471.782 89.4807 472.699 89.2513 473.789 89.022C474.935 88.7353 476.168 88.506 477.487 88.334C478.805 88.1047 480.181 87.9327 481.615 87.818C483.105 87.646 484.596 87.56 486.087 87.56ZM515.218 111.382C515.218 108.114 515.734 105.047 516.766 102.18C517.855 99.256 519.403 96.7333 521.41 94.612C523.416 92.4333 525.853 90.7133 528.72 89.452C531.586 88.1907 534.854 87.56 538.524 87.56C540.932 87.56 543.139 87.7893 545.146 88.248C547.152 88.6493 549.102 89.2513 550.994 90.054L548.328 100.288C547.124 99.8293 545.805 99.428 544.372 99.084C542.938 98.74 541.333 98.568 539.556 98.568C535.772 98.568 532.934 99.7433 531.042 102.094C529.207 104.445 528.29 107.541 528.29 111.382C528.29 115.453 529.15 118.606 530.87 120.842C532.647 123.078 535.714 124.196 540.072 124.196C541.62 124.196 543.282 124.053 545.06 123.766C546.837 123.479 548.471 123.021 549.962 122.39L551.768 132.882C550.277 133.513 548.414 134.057 546.178 134.516C543.942 134.975 541.476 135.204 538.782 135.204C534.654 135.204 531.099 134.602 528.118 133.398C525.136 132.137 522.671 130.445 520.722 128.324C518.83 126.203 517.425 123.709 516.508 120.842C515.648 117.918 515.218 114.765 515.218 111.382ZM572.494 104.158C572.494 107.082 572.838 109.719 573.526 112.07C574.271 114.421 575.303 116.456 576.622 118.176C577.998 119.839 579.66 121.129 581.61 122.046C583.559 122.963 585.795 123.422 588.318 123.422C590.783 123.422 592.99 122.963 594.94 122.046C596.946 121.129 598.609 119.839 599.928 118.176C601.304 116.456 602.336 114.421 603.024 112.07C603.769 109.719 604.142 107.082 604.142 104.158C604.142 101.234 603.769 98.5967 603.024 96.246C602.336 93.838 601.304 91.8027 599.928 90.14C598.609 88.42 596.946 87.1013 594.94 86.184C592.99 85.2667 590.783 84.808 588.318 84.808C585.795 84.808 583.559 85.2953 581.61 86.27C579.66 87.1873 577.998 88.506 576.622 90.226C575.303 91.8887 574.271 93.924 573.526 96.332C572.838 98.6827 572.494 101.291 572.494 104.158ZM617.988 104.158C617.988 109.261 617.214 113.761 615.666 117.66C614.175 121.501 612.111 124.741 609.474 127.378C606.836 129.958 603.683 131.907 600.014 133.226C596.402 134.545 592.503 135.204 588.318 135.204C584.247 135.204 580.406 134.545 576.794 133.226C573.182 131.907 570.028 129.958 567.334 127.378C564.639 124.741 562.518 121.501 560.97 117.66C559.422 113.761 558.648 109.261 558.648 104.158C558.648 99.0553 559.45 94.5833 561.056 90.742C562.661 86.8433 564.811 83.5753 567.506 80.938C570.258 78.3007 573.411 76.3227 576.966 75.004C580.578 73.6853 584.362 73.026 588.318 73.026C592.388 73.026 596.23 73.6853 599.842 75.004C603.454 76.3227 606.607 78.3007 609.302 80.938C611.996 83.5753 614.118 86.8433 615.666 90.742C617.214 94.5833 617.988 99.0553 617.988 104.158ZM645.425 123.766C647.317 123.766 648.865 123.623 650.069 123.336C651.33 122.992 652.334 122.562 653.079 122.046C653.824 121.473 654.34 120.813 654.627 120.068C654.914 119.323 655.057 118.491 655.057 117.574C655.057 115.625 654.14 114.019 652.305 112.758C650.47 111.439 647.317 110.035 642.845 108.544C640.896 107.856 638.946 107.082 636.997 106.222C635.048 105.305 633.299 104.187 631.751 102.868C630.203 101.492 628.942 99.858 627.967 97.966C626.992 96.0167 626.505 93.666 626.505 90.914C626.505 88.162 627.021 85.6967 628.053 83.518C629.085 81.282 630.547 79.39 632.439 77.842C634.331 76.294 636.624 75.1187 639.319 74.316C642.014 73.456 645.052 73.026 648.435 73.026C652.448 73.026 655.917 73.456 658.841 74.316C661.765 75.176 664.173 76.122 666.065 77.154L662.195 87.732C660.532 86.872 658.669 86.1267 656.605 85.496C654.598 84.808 652.162 84.464 649.295 84.464C646.084 84.464 643.762 84.9227 642.329 85.84C640.953 86.7 640.265 88.0473 640.265 89.882C640.265 90.9713 640.523 91.8887 641.039 92.634C641.555 93.3793 642.272 94.0673 643.189 94.698C644.164 95.2713 645.253 95.816 646.457 96.332C647.718 96.7907 649.094 97.278 650.585 97.794C653.681 98.9407 656.376 100.087 658.669 101.234C660.962 102.323 662.854 103.613 664.345 105.104C665.893 106.595 667.04 108.343 667.785 110.35C668.53 112.357 668.903 114.793 668.903 117.66C668.903 123.221 666.954 127.55 663.055 130.646C659.156 133.685 653.28 135.204 645.425 135.204C642.788 135.204 640.408 135.032 638.287 134.688C636.166 134.401 634.274 134.029 632.611 133.57C631.006 133.111 629.601 132.624 628.397 132.108C627.25 131.592 626.276 131.105 625.473 130.646L629.257 119.982C631.034 120.957 633.213 121.845 635.793 122.648C638.43 123.393 641.641 123.766 645.425 123.766ZM310.504 210C309.873 207.936 309.156 205.815 308.354 203.636C307.608 201.457 306.863 199.279 306.118 197.1H282.898C282.152 199.279 281.378 201.457 280.576 203.636C279.83 205.815 279.142 207.936 278.512 210H264.58C266.816 203.579 268.937 197.645 270.944 192.198C272.95 186.751 274.9 181.62 276.792 176.804C278.741 171.988 280.633 167.43 282.468 163.13C284.36 158.773 286.309 154.53 288.316 150.402H301.13C303.079 154.53 305 158.773 306.892 163.13C308.784 167.43 310.676 171.988 312.568 176.804C314.517 181.62 316.495 186.751 318.502 192.198C320.508 197.645 322.63 203.579 324.866 210H310.504ZM294.422 163.904C294.135 164.764 293.705 165.939 293.132 167.43C292.558 168.921 291.899 170.641 291.154 172.59C290.408 174.539 289.577 176.689 288.66 179.04C287.8 181.391 286.911 183.856 285.994 186.436H302.936C302.018 183.856 301.13 181.391 300.27 179.04C299.41 176.689 298.578 174.539 297.776 172.59C297.03 170.641 296.371 168.921 295.798 167.43C295.224 165.939 294.766 164.764 294.422 163.904ZM360.702 187.726C360.702 183.77 359.814 180.617 358.036 178.266C356.259 175.858 353.622 174.654 350.124 174.654C348.978 174.654 347.917 174.711 346.942 174.826C345.968 174.883 345.165 174.969 344.534 175.084V198.218C345.337 198.734 346.369 199.164 347.63 199.508C348.949 199.852 350.268 200.024 351.586 200.024C357.664 200.024 360.702 195.925 360.702 187.726ZM373.774 187.382C373.774 190.879 373.344 194.061 372.484 196.928C371.624 199.795 370.363 202.26 368.7 204.324C367.038 206.388 364.974 207.993 362.508 209.14C360.043 210.287 357.205 210.86 353.994 210.86C352.217 210.86 350.554 210.688 349.006 210.344C347.458 210 345.968 209.513 344.534 208.882V225.91H331.72V166.312C332.867 165.968 334.186 165.653 335.676 165.366C337.167 165.022 338.715 164.735 340.32 164.506C341.983 164.277 343.646 164.105 345.308 163.99C347.028 163.818 348.662 163.732 350.21 163.732C353.937 163.732 357.262 164.305 360.186 165.452C363.11 166.541 365.576 168.118 367.582 170.182C369.589 172.189 371.108 174.654 372.14 177.578C373.23 180.502 373.774 183.77 373.774 187.382ZM412.605 187.726C412.605 183.77 411.716 180.617 409.939 178.266C408.161 175.858 405.524 174.654 402.027 174.654C400.88 174.654 399.819 174.711 398.845 174.826C397.87 174.883 397.067 174.969 396.437 175.084V198.218C397.239 198.734 398.271 199.164 399.533 199.508C400.851 199.852 402.17 200.024 403.489 200.024C409.566 200.024 412.605 195.925 412.605 187.726ZM425.677 187.382C425.677 190.879 425.247 194.061 424.387 196.928C423.527 199.795 422.265 202.26 420.603 204.324C418.94 206.388 416.876 207.993 414.411 209.14C411.945 210.287 409.107 210.86 405.897 210.86C404.119 210.86 402.457 210.688 400.909 210.344C399.361 210 397.87 209.513 396.437 208.882V225.91H383.623V166.312C384.769 165.968 386.088 165.653 387.579 165.366C389.069 165.022 390.617 164.735 392.223 164.506C393.885 164.277 395.548 164.105 397.211 163.99C398.931 163.818 400.565 163.732 402.113 163.732C405.839 163.732 409.165 164.305 412.089 165.452C415.013 166.541 417.478 168.118 419.485 170.182C421.491 172.189 423.011 174.654 424.043 177.578C425.132 180.502 425.677 183.77 425.677 187.382ZM453.585 210.86C449.858 210.803 446.82 210.401 444.469 209.656C442.176 208.911 440.341 207.879 438.965 206.56C437.646 205.184 436.729 203.55 436.213 201.658C435.754 199.709 435.525 197.53 435.525 195.122V145.328L448.339 143.264V192.542C448.339 193.689 448.425 194.721 448.597 195.638C448.769 196.555 449.084 197.329 449.543 197.96C450.059 198.591 450.776 199.107 451.693 199.508C452.61 199.909 453.843 200.167 455.391 200.282L453.585 210.86ZM460.586 187.726C460.586 183.713 461.188 180.215 462.392 177.234C463.653 174.195 465.287 171.673 467.294 169.666C469.3 167.659 471.594 166.14 474.174 165.108C476.811 164.076 479.506 163.56 482.258 163.56C488.679 163.56 493.753 165.538 497.48 169.494C501.206 173.393 503.07 179.155 503.07 186.78C503.07 187.525 503.041 188.357 502.984 189.274C502.926 190.134 502.869 190.908 502.812 191.596H473.744C474.03 194.233 475.263 196.326 477.442 197.874C479.62 199.422 482.544 200.196 486.214 200.196C488.564 200.196 490.858 199.995 493.094 199.594C495.387 199.135 497.25 198.591 498.684 197.96L500.404 208.366C499.716 208.71 498.798 209.054 497.652 209.398C496.505 209.742 495.215 210.029 493.782 210.258C492.406 210.545 490.915 210.774 489.31 210.946C487.704 211.118 486.099 211.204 484.494 211.204C480.423 211.204 476.868 210.602 473.83 209.398C470.848 208.194 468.354 206.56 466.348 204.496C464.398 202.375 462.936 199.881 461.962 197.014C461.044 194.147 460.586 191.051 460.586 187.726ZM490.686 182.824C490.628 181.735 490.428 180.674 490.084 179.642C489.797 178.61 489.31 177.693 488.622 176.89C487.991 176.087 487.16 175.428 486.128 174.912C485.153 174.396 483.92 174.138 482.43 174.138C480.996 174.138 479.764 174.396 478.732 174.912C477.7 175.371 476.84 176.001 476.152 176.804C475.464 177.607 474.919 178.553 474.518 179.642C474.174 180.674 473.916 181.735 473.744 182.824H490.686ZM550.733 199.766C552.625 199.766 554.173 199.623 555.377 199.336C556.638 198.992 557.641 198.562 558.387 198.046C559.132 197.473 559.648 196.813 559.935 196.068C560.221 195.323 560.365 194.491 560.365 193.574C560.365 191.625 559.447 190.019 557.613 188.758C555.778 187.439 552.625 186.035 548.153 184.544C546.203 183.856 544.254 183.082 542.305 182.222C540.355 181.305 538.607 180.187 537.059 178.868C535.511 177.492 534.249 175.858 533.275 173.966C532.3 172.017 531.813 169.666 531.813 166.914C531.813 164.162 532.329 161.697 533.361 159.518C534.393 157.282 535.855 155.39 537.747 153.842C539.639 152.294 541.932 151.119 544.627 150.316C547.321 149.456 550.36 149.026 553.743 149.026C557.756 149.026 561.225 149.456 564.149 150.316C567.073 151.176 569.481 152.122 571.373 153.154L567.503 163.732C565.84 162.872 563.977 162.127 561.913 161.496C559.906 160.808 557.469 160.464 554.603 160.464C551.392 160.464 549.07 160.923 547.637 161.84C546.261 162.7 545.573 164.047 545.573 165.882C545.573 166.971 545.831 167.889 546.347 168.634C546.863 169.379 547.579 170.067 548.497 170.698C549.471 171.271 550.561 171.816 551.765 172.332C553.026 172.791 554.402 173.278 555.893 173.794C558.989 174.941 561.683 176.087 563.977 177.234C566.27 178.323 568.162 179.613 569.653 181.104C571.201 182.595 572.347 184.343 573.093 186.35C573.838 188.357 574.211 190.793 574.211 193.66C574.211 199.221 572.261 203.55 568.363 206.646C564.464 209.685 558.587 211.204 550.733 211.204C548.095 211.204 545.716 211.032 543.595 210.688C541.473 210.401 539.581 210.029 537.919 209.57C536.313 209.111 534.909 208.624 533.705 208.108C532.558 207.592 531.583 207.105 530.781 206.646L534.565 195.982C536.342 196.957 538.521 197.845 541.101 198.648C543.738 199.393 546.949 199.766 550.733 199.766ZM596.487 210H583.673V164.764H596.487V210ZM597.691 151.692C597.691 154.043 596.917 155.906 595.369 157.282C593.879 158.601 592.101 159.26 590.037 159.26C587.973 159.26 586.167 158.601 584.619 157.282C583.129 155.906 582.383 154.043 582.383 151.692C582.383 149.341 583.129 147.507 584.619 146.188C586.167 144.812 587.973 144.124 590.037 144.124C592.101 144.124 593.879 144.812 595.369 146.188C596.917 147.507 597.691 149.341 597.691 151.692ZM626.593 210.86C622.866 210.803 619.827 210.401 617.477 209.656C615.183 208.911 613.349 207.879 611.973 206.56C610.654 205.184 609.737 203.55 609.221 201.658C608.762 199.709 608.533 197.53 608.533 195.122V145.328L621.347 143.264V192.542C621.347 193.689 621.433 194.721 621.605 195.638C621.777 196.555 622.092 197.329 622.551 197.96C623.067 198.591 623.783 199.107 624.701 199.508C625.618 199.909 626.851 200.167 628.399 200.282L626.593 210.86ZM648.558 210H635.744V164.764H648.558V210ZM649.762 151.692C649.762 154.043 648.988 155.906 647.44 157.282C645.949 158.601 644.172 159.26 642.108 159.26C640.044 159.26 638.238 158.601 636.69 157.282C635.199 155.906 634.454 154.043 634.454 151.692C634.454 149.341 635.199 147.507 636.69 146.188C638.238 144.812 640.044 144.124 642.108 144.124C644.172 144.124 645.949 144.812 647.44 146.188C648.988 147.507 649.762 149.341 649.762 151.692ZM658.453 187.382C658.453 184.114 658.969 181.047 660.001 178.18C661.09 175.256 662.638 172.733 664.645 170.612C666.652 168.433 669.088 166.713 671.955 165.452C674.822 164.191 678.09 163.56 681.759 163.56C684.167 163.56 686.374 163.789 688.381 164.248C690.388 164.649 692.337 165.251 694.229 166.054L691.563 176.288C690.359 175.829 689.04 175.428 687.607 175.084C686.174 174.74 684.568 174.568 682.791 174.568C679.007 174.568 676.169 175.743 674.277 178.094C672.442 180.445 671.525 183.541 671.525 187.382C671.525 191.453 672.385 194.606 674.105 196.842C675.882 199.078 678.95 200.196 683.307 200.196C684.855 200.196 686.518 200.053 688.295 199.766C690.072 199.479 691.706 199.021 693.197 198.39L695.003 208.882C693.512 209.513 691.649 210.057 689.413 210.516C687.177 210.975 684.712 211.204 682.017 211.204C677.889 211.204 674.334 210.602 671.353 209.398C668.372 208.137 665.906 206.445 663.957 204.324C662.065 202.203 660.66 199.709 659.743 196.842C658.883 193.918 658.453 190.765 658.453 187.382ZM743.731 187.296C743.731 190.851 743.215 194.119 742.183 197.1C741.151 200.024 739.661 202.547 737.711 204.668C735.762 206.732 733.411 208.337 730.659 209.484C727.965 210.631 724.926 211.204 721.543 211.204C718.218 211.204 715.179 210.631 712.427 209.484C709.733 208.337 707.411 206.732 705.461 204.668C703.512 202.547 701.993 200.024 700.903 197.1C699.814 194.119 699.269 190.851 699.269 187.296C699.269 183.741 699.814 180.502 700.903 177.578C702.05 174.654 703.598 172.16 705.547 170.096C707.554 168.032 709.905 166.427 712.599 165.28C715.351 164.133 718.333 163.56 721.543 163.56C724.811 163.56 727.793 164.133 730.487 165.28C733.239 166.427 735.59 168.032 737.539 170.096C739.489 172.16 741.008 174.654 742.097 177.578C743.187 180.502 743.731 183.741 743.731 187.296ZM730.659 187.296C730.659 183.34 729.857 180.244 728.251 178.008C726.703 175.715 724.467 174.568 721.543 174.568C718.619 174.568 716.355 175.715 714.749 178.008C713.144 180.244 712.341 183.34 712.341 187.296C712.341 191.252 713.144 194.405 714.749 196.756C716.355 199.049 718.619 200.196 721.543 200.196C724.467 200.196 726.703 199.049 728.251 196.756C729.857 194.405 730.659 191.252 730.659 187.296ZM753.658 166.312C755.836 165.681 758.646 165.108 762.086 164.592C765.526 164.019 769.138 163.732 772.922 163.732C776.763 163.732 779.945 164.248 782.468 165.28C785.048 166.255 787.083 167.659 788.574 169.494C790.064 171.329 791.125 173.507 791.756 176.03C792.386 178.553 792.702 181.362 792.702 184.458V210H779.888V186.006C779.888 181.878 779.343 178.954 778.254 177.234C777.164 175.514 775.129 174.654 772.148 174.654C771.23 174.654 770.256 174.711 769.224 174.826C768.192 174.883 767.274 174.969 766.472 175.084V210H753.658V166.312Z" fill="white"/>
<path d="M199.369 105.686C198.336 106.487 180.098 116.759 180.098 139.599C180.098 166.017 203.305 175.362 204 175.594C203.893 176.164 200.313 188.393 191.764 200.855C184.141 211.82 176.179 222.769 164.068 222.769C151.956 222.769 148.839 215.737 134.857 215.737C121.232 215.737 116.387 223 105.309 223C94.2303 223 86.5003 212.853 77.6126 200.392C67.3178 185.759 59 163.026 59 141.45C59 106.843 81.5132 88.4897 103.67 88.4897C115.443 88.4897 125.257 96.2157 132.649 96.2157C139.684 96.2157 150.656 88.0269 164.05 88.0269C169.126 88.0269 187.364 88.4897 199.369 105.686ZM157.691 73.376C163.23 66.8072 167.149 57.6927 167.149 48.5782C167.149 47.3142 167.042 46.0325 166.81 45C157.798 45.3382 147.076 50.9992 140.61 58.4937C135.534 64.2615 130.796 73.376 130.796 82.6152C130.796 84.0037 131.028 85.3922 131.135 85.8373C131.705 85.9441 132.631 86.0687 133.557 86.0687C141.643 86.0687 151.814 80.657 157.691 73.376Z" fill="white"/>
</svg>
