<svg width="920" height="281" viewBox="0 0 920 281" fill="none" xmlns="http://www.w3.org/2000/svg">
<rect width="920" height="281" rx="32" fill="#5E5E5E"/>
<path d="M420.528 110.006C420.528 105.878 419.984 102.954 418.894 101.234C417.862 99.514 416.056 98.654 413.476 98.654C412.674 98.654 411.842 98.7113 410.982 98.826C410.122 98.8833 409.291 98.9693 408.488 99.084V134H395.674V90.312C396.764 90.0253 398.025 89.7387 399.458 89.452C400.949 89.108 402.497 88.8213 404.102 88.592C405.765 88.3053 407.456 88.1047 409.176 87.99C410.896 87.818 412.588 87.732 414.25 87.732C417.518 87.732 420.156 88.162 422.162 89.022C424.226 89.8247 425.918 90.7993 427.236 91.946C429.071 90.6273 431.164 89.5953 433.514 88.85C435.922 88.1047 438.13 87.732 440.136 87.732C443.748 87.732 446.701 88.248 448.994 89.28C451.345 90.2547 453.208 91.6593 454.584 93.494C455.96 95.3287 456.906 97.5073 457.422 100.03C457.938 102.553 458.196 105.362 458.196 108.458V134H445.382V110.006C445.382 105.878 444.838 102.954 443.748 101.234C442.716 99.514 440.91 98.654 438.33 98.654C437.642 98.654 436.668 98.826 435.406 99.17C434.202 99.514 433.199 99.944 432.396 100.46C432.798 101.779 433.056 103.183 433.17 104.674C433.285 106.107 433.342 107.655 433.342 109.318V134H420.528V110.006ZM487.119 125.056C488.38 125.056 489.584 125.027 490.731 124.97C491.877 124.913 492.795 124.827 493.483 124.712V114.994C492.967 114.879 492.193 114.765 491.161 114.65C490.129 114.535 489.183 114.478 488.323 114.478C487.119 114.478 485.972 114.564 484.883 114.736C483.851 114.851 482.933 115.109 482.131 115.51C481.328 115.911 480.697 116.456 480.239 117.144C479.78 117.832 479.551 118.692 479.551 119.724C479.551 121.731 480.21 123.135 481.529 123.938C482.905 124.683 484.768 125.056 487.119 125.056ZM486.087 87.56C489.871 87.56 493.024 87.99 495.547 88.85C498.069 89.71 500.076 90.9427 501.567 92.548C503.115 94.1533 504.204 96.1027 504.835 98.396C505.465 100.689 505.781 103.241 505.781 106.05V132.71C503.946 133.111 501.395 133.57 498.127 134.086C494.859 134.659 490.903 134.946 486.259 134.946C483.335 134.946 480.669 134.688 478.261 134.172C475.91 133.656 473.875 132.825 472.155 131.678C470.435 130.474 469.116 128.926 468.199 127.034C467.281 125.142 466.823 122.82 466.823 120.068C466.823 117.431 467.339 115.195 468.371 113.36C469.46 111.525 470.893 110.063 472.671 108.974C474.448 107.885 476.483 107.111 478.777 106.652C481.07 106.136 483.449 105.878 485.914 105.878C487.577 105.878 489.039 105.964 490.301 106.136C491.619 106.251 492.68 106.423 493.483 106.652V105.448C493.483 103.269 492.823 101.521 491.505 100.202C490.186 98.8833 487.893 98.224 484.625 98.224C482.446 98.224 480.296 98.396 478.175 98.74C476.053 99.0267 474.219 99.4567 472.671 100.03L471.037 89.71C471.782 89.4807 472.699 89.2513 473.789 89.022C474.935 88.7353 476.168 88.506 477.487 88.334C478.805 88.1047 480.181 87.9327 481.615 87.818C483.105 87.646 484.596 87.56 486.087 87.56ZM515.218 111.382C515.218 108.114 515.734 105.047 516.766 102.18C517.855 99.256 519.403 96.7333 521.41 94.612C523.416 92.4333 525.853 90.7133 528.72 89.452C531.586 88.1907 534.854 87.56 538.524 87.56C540.932 87.56 543.139 87.7893 545.146 88.248C547.152 88.6493 549.102 89.2513 550.994 90.054L548.328 100.288C547.124 99.8293 545.805 99.428 544.372 99.084C542.938 98.74 541.333 98.568 539.556 98.568C535.772 98.568 532.934 99.7433 531.042 102.094C529.207 104.445 528.29 107.541 528.29 111.382C528.29 115.453 529.15 118.606 530.87 120.842C532.647 123.078 535.714 124.196 540.072 124.196C541.62 124.196 543.282 124.053 545.06 123.766C546.837 123.479 548.471 123.021 549.962 122.39L551.768 132.882C550.277 133.513 548.414 134.057 546.178 134.516C543.942 134.975 541.476 135.204 538.782 135.204C534.654 135.204 531.099 134.602 528.118 133.398C525.136 132.137 522.671 130.445 520.722 128.324C518.83 126.203 517.425 123.709 516.508 120.842C515.648 117.918 515.218 114.765 515.218 111.382ZM572.494 104.158C572.494 107.082 572.838 109.719 573.526 112.07C574.271 114.421 575.303 116.456 576.622 118.176C577.998 119.839 579.66 121.129 581.61 122.046C583.559 122.963 585.795 123.422 588.318 123.422C590.783 123.422 592.99 122.963 594.94 122.046C596.946 121.129 598.609 119.839 599.928 118.176C601.304 116.456 602.336 114.421 603.024 112.07C603.769 109.719 604.142 107.082 604.142 104.158C604.142 101.234 603.769 98.5967 603.024 96.246C602.336 93.838 601.304 91.8027 599.928 90.14C598.609 88.42 596.946 87.1013 594.94 86.184C592.99 85.2667 590.783 84.808 588.318 84.808C585.795 84.808 583.559 85.2953 581.61 86.27C579.66 87.1873 577.998 88.506 576.622 90.226C575.303 91.8887 574.271 93.924 573.526 96.332C572.838 98.6827 572.494 101.291 572.494 104.158ZM617.988 104.158C617.988 109.261 617.214 113.761 615.666 117.66C614.175 121.501 612.111 124.741 609.474 127.378C606.836 129.958 603.683 131.907 600.014 133.226C596.402 134.545 592.503 135.204 588.318 135.204C584.247 135.204 580.406 134.545 576.794 133.226C573.182 131.907 570.028 129.958 567.334 127.378C564.639 124.741 562.518 121.501 560.97 117.66C559.422 113.761 558.648 109.261 558.648 104.158C558.648 99.0553 559.45 94.5833 561.056 90.742C562.661 86.8433 564.811 83.5753 567.506 80.938C570.258 78.3007 573.411 76.3227 576.966 75.004C580.578 73.6853 584.362 73.026 588.318 73.026C592.388 73.026 596.23 73.6853 599.842 75.004C603.454 76.3227 606.607 78.3007 609.302 80.938C611.996 83.5753 614.118 86.8433 615.666 90.742C617.214 94.5833 617.988 99.0553 617.988 104.158ZM645.425 123.766C647.317 123.766 648.865 123.623 650.069 123.336C651.33 122.992 652.334 122.562 653.079 122.046C653.824 121.473 654.34 120.813 654.627 120.068C654.914 119.323 655.057 118.491 655.057 117.574C655.057 115.625 654.14 114.019 652.305 112.758C650.47 111.439 647.317 110.035 642.845 108.544C640.896 107.856 638.946 107.082 636.997 106.222C635.048 105.305 633.299 104.187 631.751 102.868C630.203 101.492 628.942 99.858 627.967 97.966C626.992 96.0167 626.505 93.666 626.505 90.914C626.505 88.162 627.021 85.6967 628.053 83.518C629.085 81.282 630.547 79.39 632.439 77.842C634.331 76.294 636.624 75.1187 639.319 74.316C642.014 73.456 645.052 73.026 648.435 73.026C652.448 73.026 655.917 73.456 658.841 74.316C661.765 75.176 664.173 76.122 666.065 77.154L662.195 87.732C660.532 86.872 658.669 86.1267 656.605 85.496C654.598 84.808 652.162 84.464 649.295 84.464C646.084 84.464 643.762 84.9227 642.329 85.84C640.953 86.7 640.265 88.0473 640.265 89.882C640.265 90.9713 640.523 91.8887 641.039 92.634C641.555 93.3793 642.272 94.0673 643.189 94.698C644.164 95.2713 645.253 95.816 646.457 96.332C647.718 96.7907 649.094 97.278 650.585 97.794C653.681 98.9407 656.376 100.087 658.669 101.234C660.962 102.323 662.854 103.613 664.345 105.104C665.893 106.595 667.04 108.343 667.785 110.35C668.53 112.357 668.903 114.793 668.903 117.66C668.903 123.221 666.954 127.55 663.055 130.646C659.156 133.685 653.28 135.204 645.425 135.204C642.788 135.204 640.408 135.032 638.287 134.688C636.166 134.401 634.274 134.029 632.611 133.57C631.006 133.111 629.601 132.624 628.397 132.108C627.25 131.592 626.276 131.105 625.473 130.646L629.257 119.982C631.034 120.957 633.213 121.845 635.793 122.648C638.43 123.393 641.641 123.766 645.425 123.766ZM441.97 150.402H455.386V210H441.97V150.402ZM468.321 166.312C470.499 165.681 473.309 165.108 476.749 164.592C480.189 164.019 483.801 163.732 487.585 163.732C491.426 163.732 494.608 164.248 497.131 165.28C499.711 166.255 501.746 167.659 503.237 169.494C504.727 171.329 505.788 173.507 506.419 176.03C507.049 178.553 507.365 181.362 507.365 184.458V210H494.551V186.006C494.551 181.878 494.006 178.954 492.917 177.234C491.827 175.514 489.792 174.654 486.811 174.654C485.893 174.654 484.919 174.711 483.887 174.826C482.855 174.883 481.937 174.969 481.135 175.084V210H468.321V166.312ZM518.533 153.498L531.347 151.434V164.764H546.741V175.428H531.347V191.338C531.347 194.033 531.806 196.183 532.723 197.788C533.698 199.393 535.619 200.196 538.485 200.196C539.861 200.196 541.266 200.081 542.699 199.852C544.19 199.565 545.537 199.193 546.741 198.734L548.547 208.71C546.999 209.341 545.279 209.885 543.387 210.344C541.495 210.803 539.173 211.032 536.421 211.032C532.924 211.032 530.029 210.573 527.735 209.656C525.442 208.681 523.607 207.363 522.231 205.7C520.855 203.98 519.881 201.916 519.307 199.508C518.791 197.1 518.533 194.434 518.533 191.51V153.498ZM553.347 187.726C553.347 183.713 553.949 180.215 555.153 177.234C556.414 174.195 558.048 171.673 560.055 169.666C562.061 167.659 564.355 166.14 566.935 165.108C569.572 164.076 572.267 163.56 575.019 163.56C581.44 163.56 586.514 165.538 590.241 169.494C593.967 173.393 595.831 179.155 595.831 186.78C595.831 187.525 595.802 188.357 595.745 189.274C595.687 190.134 595.63 190.908 595.573 191.596H566.505C566.791 194.233 568.024 196.326 570.203 197.874C572.381 199.422 575.305 200.196 578.975 200.196C581.325 200.196 583.619 199.995 585.855 199.594C588.148 199.135 590.011 198.591 591.445 197.96L593.165 208.366C592.477 208.71 591.559 209.054 590.413 209.398C589.266 209.742 587.976 210.029 586.543 210.258C585.167 210.545 583.676 210.774 582.071 210.946C580.465 211.118 578.86 211.204 577.255 211.204C573.184 211.204 569.629 210.602 566.591 209.398C563.609 208.194 561.115 206.56 559.109 204.496C557.159 202.375 555.697 199.881 554.723 197.014C553.805 194.147 553.347 191.051 553.347 187.726ZM583.447 182.824C583.389 181.735 583.189 180.674 582.845 179.642C582.558 178.61 582.071 177.693 581.383 176.89C580.752 176.087 579.921 175.428 578.889 174.912C577.914 174.396 576.681 174.138 575.191 174.138C573.757 174.138 572.525 174.396 571.493 174.912C570.461 175.371 569.601 176.001 568.913 176.804C568.225 177.607 567.68 178.553 567.279 179.642C566.935 180.674 566.677 181.735 566.505 182.824H583.447ZM623.779 210.86C620.053 210.803 617.014 210.401 614.663 209.656C612.37 208.911 610.535 207.879 609.159 206.56C607.841 205.184 606.923 203.55 606.407 201.658C605.949 199.709 605.719 197.53 605.719 195.122V145.328L618.533 143.264V192.542C618.533 193.689 618.619 194.721 618.791 195.638C618.963 196.555 619.279 197.329 619.737 197.96C620.253 198.591 620.97 199.107 621.887 199.508C622.805 199.909 624.037 200.167 625.585 200.282L623.779 210.86Z" fill="white"/>
<path d="M199.369 105.686C198.336 106.487 180.098 116.759 180.098 139.599C180.098 166.017 203.305 175.362 204 175.594C203.893 176.164 200.313 188.393 191.764 200.855C184.141 211.82 176.179 222.769 164.068 222.769C151.956 222.769 148.839 215.737 134.857 215.737C121.232 215.737 116.387 223 105.309 223C94.2303 223 86.5003 212.853 77.6126 200.392C67.3178 185.759 59 163.026 59 141.45C59 106.843 81.5132 88.4897 103.67 88.4897C115.443 88.4897 125.257 96.2157 132.649 96.2157C139.684 96.2157 150.656 88.0269 164.05 88.0269C169.126 88.0269 187.364 88.4897 199.369 105.686ZM157.691 73.376C163.23 66.8072 167.149 57.6927 167.149 48.5782C167.149 47.3142 167.042 46.0325 166.81 45C157.798 45.3382 147.076 50.9992 140.61 58.4937C135.534 64.2615 130.796 73.376 130.796 82.6152C130.796 84.0037 131.028 85.3922 131.135 85.8373C131.705 85.9441 132.631 86.0687 133.557 86.0687C141.643 86.0687 151.814 80.657 157.691 73.376Z" fill="white"/>
</svg>
