<svg width="920" height="281" viewBox="0 0 920 281" fill="none" xmlns="http://www.w3.org/2000/svg">
<rect width="920" height="281" rx="32" fill="white"/>
<path d="M305.339 142.158C305.339 145.082 305.683 147.719 306.371 150.07C307.117 152.421 308.149 154.456 309.467 156.176C310.843 157.839 312.506 159.129 314.455 160.046C316.405 160.963 318.641 161.422 321.163 161.422C323.629 161.422 325.836 160.963 327.785 160.046C329.792 159.129 331.455 157.839 332.773 156.176C334.149 154.456 335.181 152.421 335.869 150.07C336.615 147.719 336.987 145.082 336.987 142.158C336.987 139.234 336.615 136.597 335.869 134.246C335.181 131.838 334.149 129.803 332.773 128.14C331.455 126.42 329.792 125.101 327.785 124.184C325.836 123.267 323.629 122.808 321.163 122.808C318.641 122.808 316.405 123.295 314.455 124.27C312.506 125.187 310.843 126.506 309.467 128.226C308.149 129.889 307.117 131.924 306.371 134.332C305.683 136.683 305.339 139.291 305.339 142.158ZM350.833 142.158C350.833 147.261 350.059 151.761 348.511 155.66C347.021 159.501 344.957 162.741 342.319 165.378C339.682 167.958 336.529 169.907 332.859 171.226C329.247 172.545 325.349 173.204 321.163 173.204C317.093 173.204 313.251 172.545 309.639 171.226C306.027 169.907 302.874 167.958 300.179 165.378C297.485 162.741 295.363 159.501 293.815 155.66C292.267 151.761 291.493 147.261 291.493 142.158C291.493 137.055 292.296 132.583 293.901 128.742C295.507 124.843 297.657 121.575 300.351 118.938C303.103 116.301 306.257 114.323 309.811 113.004C313.423 111.685 317.207 111.026 321.163 111.026C325.234 111.026 329.075 111.685 332.687 113.004C336.299 114.323 339.453 116.301 342.147 118.938C344.842 121.575 346.963 124.843 348.511 128.742C350.059 132.583 350.833 137.055 350.833 142.158ZM361.157 128.312C363.335 127.681 366.145 127.108 369.585 126.592C373.025 126.019 376.637 125.732 380.421 125.732C384.262 125.732 387.444 126.248 389.967 127.28C392.547 128.255 394.582 129.659 396.073 131.494C397.563 133.329 398.624 135.507 399.255 138.03C399.885 140.553 400.201 143.362 400.201 146.458V172H387.387V148.006C387.387 143.878 386.842 140.954 385.753 139.234C384.663 137.514 382.628 136.654 379.647 136.654C378.729 136.654 377.755 136.711 376.723 136.826C375.691 136.883 374.773 136.969 373.971 137.084V172H361.157V128.312ZM429.859 172.86C426.133 172.803 423.094 172.401 420.743 171.656C418.45 170.911 416.615 169.879 415.239 168.56C413.921 167.184 413.003 165.55 412.487 163.658C412.029 161.709 411.799 159.53 411.799 157.122V107.328L424.613 105.264V154.542C424.613 155.689 424.699 156.721 424.871 157.638C425.043 158.555 425.359 159.329 425.817 159.96C426.333 160.591 427.05 161.107 427.967 161.508C428.885 161.909 430.117 162.167 431.665 162.282L429.859 172.86ZM451.824 172H439.01V126.764H451.824V172ZM453.028 113.692C453.028 116.043 452.254 117.906 450.706 119.282C449.216 120.601 447.438 121.26 445.374 121.26C443.31 121.26 441.504 120.601 439.956 119.282C438.466 117.906 437.72 116.043 437.72 113.692C437.72 111.341 438.466 109.507 439.956 108.188C441.504 106.812 443.31 106.124 445.374 106.124C447.438 106.124 449.216 106.812 450.706 108.188C452.254 109.507 453.028 111.341 453.028 113.692ZM463.87 128.312C466.048 127.681 468.858 127.108 472.298 126.592C475.738 126.019 479.35 125.732 483.134 125.732C486.975 125.732 490.157 126.248 492.68 127.28C495.26 128.255 497.295 129.659 498.786 131.494C500.276 133.329 501.337 135.507 501.968 138.03C502.598 140.553 502.914 143.362 502.914 146.458V172H490.1V148.006C490.1 143.878 489.555 140.954 488.466 139.234C487.376 137.514 485.341 136.654 482.36 136.654C481.442 136.654 480.468 136.711 479.436 136.826C478.404 136.883 477.486 136.969 476.684 137.084V172H463.87V128.312ZM512.362 149.726C512.362 145.713 512.964 142.215 514.168 139.234C515.43 136.195 517.064 133.673 519.07 131.666C521.077 129.659 523.37 128.14 525.95 127.108C528.588 126.076 531.282 125.56 534.034 125.56C540.456 125.56 545.53 127.538 549.256 131.494C552.983 135.393 554.846 141.155 554.846 148.78C554.846 149.525 554.818 150.357 554.76 151.274C554.703 152.134 554.646 152.908 554.588 153.596H525.52C525.807 156.233 527.04 158.326 529.218 159.874C531.397 161.422 534.321 162.196 537.99 162.196C540.341 162.196 542.634 161.995 544.87 161.594C547.164 161.135 549.027 160.591 550.46 159.96L552.18 170.366C551.492 170.71 550.575 171.054 549.428 171.398C548.282 171.742 546.992 172.029 545.558 172.258C544.182 172.545 542.692 172.774 541.086 172.946C539.481 173.118 537.876 173.204 536.27 173.204C532.2 173.204 528.645 172.602 525.606 171.398C522.625 170.194 520.131 168.56 518.124 166.496C516.175 164.375 514.713 161.881 513.738 159.014C512.821 156.147 512.362 153.051 512.362 149.726ZM542.462 144.824C542.405 143.735 542.204 142.674 541.86 141.642C541.574 140.61 541.086 139.693 540.398 138.89C539.768 138.087 538.936 137.428 537.904 136.912C536.93 136.396 535.697 136.138 534.206 136.138C532.773 136.138 531.54 136.396 530.508 136.912C529.476 137.371 528.616 138.001 527.928 138.804C527.24 139.607 526.696 140.553 526.294 141.642C525.95 142.674 525.692 143.735 525.52 144.824H542.462ZM604.143 111.714C613.03 111.714 619.852 113.291 624.611 116.444C629.37 119.54 631.749 124.643 631.749 131.752C631.749 138.919 629.341 144.107 624.525 147.318C619.709 150.471 612.829 152.048 603.885 152.048H599.671V172H586.255V113.262C589.179 112.689 592.275 112.287 595.543 112.058C598.811 111.829 601.678 111.714 604.143 111.714ZM605.003 123.152C604.028 123.152 603.054 123.181 602.079 123.238C601.162 123.295 600.359 123.353 599.671 123.41V140.61H603.885C608.529 140.61 612.026 139.979 614.377 138.718C616.728 137.457 617.903 135.106 617.903 131.666C617.903 130.003 617.588 128.627 616.957 127.538C616.384 126.449 615.524 125.589 614.377 124.958C613.288 124.27 611.94 123.811 610.335 123.582C608.73 123.295 606.952 123.152 605.003 123.152ZM681.591 118.766C682.279 121.117 683.024 123.783 683.827 126.764C684.687 129.688 685.575 132.727 686.493 135.88C687.467 139.033 688.442 142.187 689.417 145.34C690.391 148.493 691.337 151.417 692.255 154.112C693 151.188 693.745 148.006 694.491 144.566C695.293 141.126 696.039 137.571 696.727 133.902C697.415 130.233 698.074 126.592 698.705 122.98C699.393 119.311 700.023 115.785 700.597 112.402H714.529C712.522 122.378 710.2 132.497 707.563 142.76C704.983 153.023 702.173 162.769 699.135 172H686.837C684.83 166.496 682.881 160.734 680.989 154.714C679.097 148.637 677.233 142.559 675.399 136.482C673.564 142.559 671.729 148.637 669.895 154.714C668.06 160.734 666.139 166.496 664.133 172H651.835C648.796 162.769 645.958 153.023 643.321 142.76C640.741 132.497 638.447 122.378 636.441 112.402H650.975C651.548 115.785 652.179 119.311 652.867 122.98C653.555 126.592 654.271 130.233 655.017 133.902C655.762 137.571 656.507 141.126 657.253 144.566C658.055 148.006 658.858 151.188 659.661 154.112C660.693 151.303 661.696 148.321 662.671 145.168C663.645 142.015 664.591 138.861 665.509 135.708C666.426 132.555 667.257 129.516 668.003 126.592C668.805 123.668 669.522 121.059 670.153 118.766H681.591ZM759.61 172C758.98 169.936 758.263 167.815 757.46 165.636C756.715 163.457 755.97 161.279 755.224 159.1H732.004C731.259 161.279 730.485 163.457 729.682 165.636C728.937 167.815 728.249 169.936 727.618 172H713.686C715.922 165.579 718.044 159.645 720.05 154.198C722.057 148.751 724.006 143.62 725.898 138.804C727.848 133.988 729.74 129.43 731.574 125.13C733.466 120.773 735.416 116.53 737.422 112.402H750.236C752.186 116.53 754.106 120.773 755.998 125.13C757.89 129.43 759.782 133.988 761.674 138.804C763.624 143.62 765.602 148.751 767.608 154.198C769.615 159.645 771.736 165.579 773.972 172H759.61ZM743.528 125.904C743.242 126.764 742.812 127.939 742.238 129.43C741.665 130.921 741.006 132.641 740.26 134.59C739.515 136.539 738.684 138.689 737.766 141.04C736.906 143.391 736.018 145.856 735.1 148.436H752.042C751.125 145.856 750.236 143.391 749.376 141.04C748.516 138.689 747.685 136.539 746.882 134.59C746.137 132.641 745.478 130.921 744.904 129.43C744.331 127.939 743.872 126.764 743.528 125.904Z" fill="#6C63FF"/>
<rect x="82.3984" y="96.0122" width="95.552" height="94.6243" fill="#EEEEFF"/>
<path fill-rule="evenodd" clip-rule="evenodd" d="M178.11 47.2388C181.969 46.2302 185.913 48.5078 186.969 52.3535C190.375 64.7867 197.144 90.4323 197.572 99.0099C197.631 100.222 197.698 101.419 197.765 102.604C198.187 110.076 198.584 117.087 196.619 124.526C200.901 129.483 203.687 135.024 206.633 140.884L206.634 140.886C207.165 141.941 207.7 143.007 208.251 144.081C212.169 151.739 219.091 177.385 222.348 189.873C223.352 193.739 221.068 197.696 217.218 198.759C204.771 202.189 179.097 209.007 170.512 209.446C169.299 209.507 168.101 209.577 166.915 209.645C160.463 210.019 154.355 210.373 148.021 209.205C143.115 213.391 137.643 216.142 131.861 219.049L131.861 219.049L131.859 219.05L131.846 219.057C130.795 219.585 129.734 220.118 128.664 220.666C121.006 224.585 95.36 231.507 82.8723 234.763C79.0066 235.768 75.0496 233.483 73.9865 229.633C70.5563 217.186 63.7387 191.512 63.2989 182.928C63.2382 181.715 63.1688 180.517 63.1001 179.331L63.1001 179.331L63.1001 179.331L63.1001 179.331C62.6953 172.342 62.314 165.757 63.8647 158.851C59.0635 153.643 56.0986 147.745 52.9512 141.485L52.9509 141.484L52.9506 141.484C52.42 140.429 51.8842 139.363 51.3336 138.288C47.4152 130.63 40.4934 104.984 37.2365 92.4962C36.2322 88.6305 38.5168 84.6736 42.3667 83.6105C54.8138 80.1802 80.4877 73.3626 89.0724 72.9228C90.2853 72.8621 91.483 72.7927 92.6691 72.724L92.6692 72.724L92.6694 72.724C99.4437 72.3317 105.839 71.9613 112.515 73.3514C117.558 68.8852 123.218 66.0295 129.212 63.0056C130.266 62.4739 131.33 61.9369 132.403 61.3851C140.05 57.4596 165.647 50.5095 178.11 47.2388ZM170.429 138.803C170.598 140.013 170.715 141.288 170.781 142.588C170.094 171.877 146 180.432 122.992 180.432L122.954 180.408C124.514 180.355 126.059 180.218 127.495 179.997C130.663 179.51 134.231 178.472 137.161 177.174C140.014 175.909 143.103 174.026 145.526 172.06C147.884 170.146 150.304 167.592 152.079 165.128C153.804 162.733 155.426 159.72 156.464 156.957C157.472 154.273 158.225 151.036 158.495 148.182C158.757 145.412 158.639 142.188 158.165 139.446C157.705 136.787 156.775 133.801 155.633 131.356C154.528 128.988 152.898 126.433 151.209 124.438C149.575 122.508 147.404 120.537 145.319 119.104C143.304 117.719 140.778 116.433 138.469 115.627C136.24 114.85 133.56 114.294 131.205 114.131C128.933 113.975 126.299 114.139 124.067 114.588C121.918 115.019 119.512 115.842 117.553 116.827C115.67 117.773 113.648 119.148 112.082 120.56C110.579 121.916 109.057 123.704 107.967 125.41C106.922 127.045 105.971 129.084 105.398 130.938C104.851 132.712 104.492 134.836 104.437 136.692C104.385 138.464 104.596 140.509 105.019 142.231C105.423 143.872 106.138 145.696 106.966 147.169C107.754 148.569 108.875 150.057 110.01 151.193C111.086 152.27 112.49 153.343 113.818 154.09C115.073 154.795 116.626 155.412 118.026 155.75C119.345 156.069 120.912 156.23 122.268 156.176C123.542 156.125 124.999 155.868 126.21 155.468C127.342 155.095 128.587 154.487 129.571 153.814C130.488 153.186 131.444 152.319 132.149 151.46C132.802 150.663 133.426 149.642 133.826 148.693C134.195 147.818 134.478 146.751 134.579 145.806C134.671 144.941 134.635 143.929 134.469 143.075C134.318 142.298 134.014 141.427 133.636 140.732C133.295 140.103 132.793 139.437 132.273 138.946C131.808 138.507 131.192 138.081 130.61 137.816C130.093 137.58 129.45 137.403 128.884 137.357C128.385 137.317 127.798 137.369 127.318 137.513C126.898 137.639 126.435 137.876 126.098 138.157C125.801 138.405 125.514 138.765 125.353 139.116C125.208 139.432 125.123 139.84 125.143 140.187C125.163 140.512 125.282 140.887 125.46 141.16C125.637 141.433 125.757 141.808 125.776 142.134C125.796 142.48 125.712 142.889 125.567 143.204C125.406 143.555 125.118 143.915 124.821 144.163C124.484 144.445 124.022 144.681 123.601 144.808C123.122 144.951 122.535 145.003 122.036 144.963C121.469 144.917 120.827 144.74 120.31 144.504C119.727 144.239 119.112 143.814 118.647 143.374C118.127 142.883 117.625 142.217 117.284 141.589C116.905 140.893 116.601 140.022 116.45 139.245C116.284 138.391 116.249 137.379 116.341 136.514C116.442 135.57 116.725 134.502 117.094 133.627C117.494 132.678 118.118 131.657 118.771 130.86C119.475 130.001 120.431 129.134 121.348 128.507C122.333 127.833 123.577 127.225 124.71 126.852C125.921 126.452 127.378 126.195 128.652 126.144C130.008 126.09 131.575 126.251 132.894 126.57C134.293 126.908 135.846 127.525 137.102 128.231C138.429 128.977 139.833 130.05 140.909 131.127C142.045 132.263 143.166 133.751 143.953 135.151C144.782 136.624 145.497 138.448 145.9 140.089C146.324 141.811 146.534 143.856 146.482 145.629C146.427 147.485 146.069 149.608 145.521 151.382C144.949 153.236 143.997 155.275 142.952 156.91C141.863 158.617 140.341 160.404 138.837 161.76C137.272 163.172 135.25 164.547 133.366 165.494C131.407 166.478 129.002 167.301 126.852 167.733C124.62 168.181 121.986 168.345 119.715 168.189C117.359 168.026 114.679 167.47 112.45 166.693C110.141 165.887 107.616 164.601 105.6 163.216C103.516 161.784 101.345 159.812 99.7101 157.882C98.0211 155.887 96.392 153.332 95.2862 150.964C94.145 148.519 93.2147 145.533 92.755 142.874C92.281 140.132 92.1631 136.909 92.4248 134.138C92.6945 131.284 93.4475 128.047 94.4559 125.363C95.494 122.6 97.1148 119.587 98.8405 117.192C100.615 114.728 103.036 112.174 105.393 110.261C107.817 108.294 110.905 106.411 113.758 105.147C116.689 103.848 120.256 102.81 123.424 102.323C126.676 101.823 130.489 101.751 133.758 102.119C137.112 102.495 140.906 103.446 144.045 104.685C147.262 105.955 150.762 107.911 153.537 109.977C156.379 112.094 159.318 114.964 161.509 117.749C163.753 120.601 165.891 124.223 167.313 127.561C168.769 130.977 169.914 135.126 170.429 138.803Z" fill="#6C63FF"/>
</svg>
