<svg width="920" height="281" viewBox="0 0 920 281" fill="none" xmlns="http://www.w3.org/2000/svg">
<rect width="920" height="281" rx="32" fill="#0078D6"/>
<path d="M58 88.576L117.208 80.5129L117.235 137.624L58.0548 137.961L58 88.576ZM117.18 144.204L117.226 201.364L58.0465 193.228L58.0431 143.82L117.18 144.204ZM124.357 79.4577L202.862 68V136.897L124.357 137.521V79.4577ZM202.88 144.741L202.862 213.328L124.357 202.249L124.248 144.614L202.88 144.741Z" fill="white"/>
<path d="M393.188 80.766C393.876 83.1167 394.622 85.7827 395.424 88.764C396.284 91.688 397.173 94.7267 398.09 97.88C399.065 101.033 400.04 104.187 401.014 107.34C401.989 110.493 402.935 113.417 403.852 116.112C404.598 113.188 405.343 110.006 406.088 106.566C406.891 103.126 407.636 99.5713 408.324 95.902C409.012 92.2327 409.672 88.592 410.302 84.98C410.99 81.3107 411.621 77.7847 412.194 74.402H426.126C424.12 84.378 421.798 94.4973 419.16 104.76C416.58 115.023 413.771 124.769 410.732 134H398.434C396.428 128.496 394.478 122.734 392.586 116.714C390.694 110.637 388.831 104.559 386.996 98.482C385.162 104.559 383.327 110.637 381.492 116.714C379.658 122.734 377.737 128.496 375.73 134H363.432C360.394 124.769 357.556 115.023 354.918 104.76C352.338 94.4973 350.045 84.378 348.038 74.402H362.572C363.146 77.7847 363.776 81.3107 364.464 84.98C365.152 88.592 365.869 92.2327 366.614 95.902C367.36 99.5713 368.105 103.126 368.85 106.566C369.653 110.006 370.456 113.188 371.258 116.112C372.29 113.303 373.294 110.321 374.268 107.168C375.243 104.015 376.189 100.861 377.106 97.708C378.024 94.5547 378.855 91.516 379.6 88.592C380.403 85.668 381.12 83.0593 381.75 80.766H393.188ZM446.701 134H433.887V88.764H446.701V134ZM447.905 75.692C447.905 78.0427 447.131 79.906 445.583 81.282C444.093 82.6007 442.315 83.26 440.251 83.26C438.187 83.26 436.381 82.6007 434.833 81.282C433.343 79.906 432.597 78.0427 432.597 75.692C432.597 73.3413 433.343 71.5067 434.833 70.188C436.381 68.812 438.187 68.124 440.251 68.124C442.315 68.124 444.093 68.812 445.583 70.188C447.131 71.5067 447.905 73.3413 447.905 75.692ZM458.747 90.312C460.925 89.6813 463.735 89.108 467.175 88.592C470.615 88.0187 474.227 87.732 478.011 87.732C481.852 87.732 485.034 88.248 487.557 89.28C490.137 90.2547 492.172 91.6593 493.663 93.494C495.153 95.3287 496.214 97.5073 496.845 100.03C497.475 102.553 497.791 105.362 497.791 108.458V134H484.977V110.006C484.977 105.878 484.432 102.954 483.343 101.234C482.253 99.514 480.218 98.654 477.237 98.654C476.319 98.654 475.345 98.7113 474.313 98.826C473.281 98.8833 472.363 98.9693 471.561 99.084V134H458.747V90.312ZM520.311 111.038C520.311 114.994 521.2 118.176 522.977 120.584C524.754 122.992 527.392 124.196 530.889 124.196C532.036 124.196 533.096 124.167 534.071 124.11C535.046 123.995 535.848 123.881 536.479 123.766V100.46C535.676 99.944 534.616 99.514 533.297 99.17C532.036 98.826 530.746 98.654 529.427 98.654C523.35 98.654 520.311 102.782 520.311 111.038ZM549.293 132.538C548.146 132.882 546.828 133.226 545.337 133.57C543.846 133.857 542.27 134.115 540.607 134.344C539.002 134.573 537.339 134.745 535.619 134.86C533.956 135.032 532.351 135.118 530.803 135.118C527.076 135.118 523.751 134.573 520.827 133.484C517.903 132.395 515.438 130.847 513.431 128.84C511.424 126.776 509.876 124.311 508.787 121.444C507.755 118.52 507.239 115.252 507.239 111.64C507.239 107.971 507.698 104.674 508.615 101.75C509.532 98.7687 510.851 96.246 512.571 94.182C514.291 92.118 516.384 90.5413 518.849 89.452C521.372 88.3627 524.238 87.818 527.449 87.818C529.226 87.818 530.803 87.99 532.179 88.334C533.612 88.678 535.046 89.1653 536.479 89.796V69.328L549.293 67.264V132.538ZM603.603 111.296C603.603 114.851 603.087 118.119 602.055 121.1C601.023 124.024 599.533 126.547 597.583 128.668C595.634 130.732 593.283 132.337 590.531 133.484C587.837 134.631 584.798 135.204 581.415 135.204C578.09 135.204 575.051 134.631 572.299 133.484C569.605 132.337 567.283 130.732 565.333 128.668C563.384 126.547 561.865 124.024 560.775 121.1C559.686 118.119 559.141 114.851 559.141 111.296C559.141 107.741 559.686 104.502 560.775 101.578C561.922 98.654 563.47 96.16 565.419 94.096C567.426 92.032 569.777 90.4267 572.471 89.28C575.223 88.1333 578.205 87.56 581.415 87.56C584.683 87.56 587.665 88.1333 590.359 89.28C593.111 90.4267 595.462 92.032 597.411 94.096C599.361 96.16 600.88 98.654 601.969 101.578C603.059 104.502 603.603 107.741 603.603 111.296ZM590.531 111.296C590.531 107.34 589.729 104.244 588.123 102.008C586.575 99.7147 584.339 98.568 581.415 98.568C578.491 98.568 576.227 99.7147 574.621 102.008C573.016 104.244 572.213 107.34 572.213 111.296C572.213 115.252 573.016 118.405 574.621 120.756C576.227 123.049 578.491 124.196 581.415 124.196C584.339 124.196 586.575 123.049 588.123 120.756C589.729 118.405 590.531 115.252 590.531 111.296ZM640.042 108.028C638.895 112.385 637.663 116.714 636.344 121.014C635.083 125.314 633.735 129.643 632.302 134H622.326C621.294 131.592 620.176 128.725 618.972 125.4C617.768 122.075 616.507 118.463 615.188 114.564C613.927 110.608 612.608 106.451 611.232 102.094C609.913 97.6793 608.623 93.236 607.362 88.764H620.864C621.323 90.828 621.81 93.0927 622.326 95.558C622.899 97.966 623.473 100.46 624.046 103.04C624.677 105.62 625.307 108.229 625.938 110.866C626.626 113.446 627.314 115.94 628.002 118.348C628.747 115.825 629.464 113.245 630.152 110.608C630.897 107.971 631.585 105.391 632.216 102.868C632.904 100.288 633.535 97.8227 634.108 95.472C634.739 93.064 635.283 90.828 635.742 88.764H645.03C645.489 90.828 646.005 93.064 646.578 95.472C647.151 97.8227 647.753 100.288 648.384 102.868C649.015 105.391 649.674 107.971 650.362 110.608C651.05 113.245 651.767 115.825 652.512 118.348C653.2 115.94 653.888 113.446 654.576 110.866C655.264 108.229 655.895 105.62 656.468 103.04C657.099 100.46 657.672 97.966 658.188 95.558C658.761 93.0927 659.277 90.828 659.736 88.764H673.066C671.805 93.236 670.486 97.6793 669.11 102.094C667.791 106.451 666.473 110.608 665.154 114.564C663.893 118.463 662.631 122.075 661.37 125.4C660.166 128.725 659.048 131.592 658.016 134H648.04C646.607 129.643 645.202 125.314 643.826 121.014C642.45 116.714 641.189 112.385 640.042 108.028ZM692.947 124.798C695.298 124.798 696.961 124.569 697.935 124.11C698.91 123.651 699.397 122.763 699.397 121.444C699.397 120.412 698.767 119.523 697.505 118.778C696.244 117.975 694.323 117.087 691.743 116.112C689.737 115.367 687.902 114.593 686.239 113.79C684.634 112.987 683.258 112.041 682.111 110.952C680.965 109.805 680.076 108.458 679.445 106.91C678.815 105.362 678.499 103.499 678.499 101.32C678.499 97.0773 680.076 93.7233 683.229 91.258C686.383 88.7927 690.711 87.56 696.215 87.56C698.967 87.56 701.605 87.818 704.127 88.334C706.65 88.7927 708.657 89.3087 710.147 89.882L707.911 99.858C706.421 99.342 704.787 98.8833 703.009 98.482C701.289 98.0807 699.34 97.88 697.161 97.88C693.148 97.88 691.141 98.998 691.141 101.234C691.141 101.75 691.227 102.209 691.399 102.61C691.571 103.011 691.915 103.413 692.431 103.814C692.947 104.158 693.635 104.559 694.495 105.018C695.413 105.419 696.559 105.878 697.935 106.394C700.745 107.426 703.067 108.458 704.901 109.49C706.736 110.465 708.169 111.554 709.201 112.758C710.291 113.905 711.036 115.195 711.437 116.628C711.896 118.061 712.125 119.724 712.125 121.616C712.125 126.088 710.434 129.471 707.051 131.764C703.726 134.057 698.996 135.204 692.861 135.204C688.848 135.204 685.494 134.86 682.799 134.172C680.162 133.484 678.327 132.911 677.295 132.452L679.445 122.046C681.624 122.906 683.86 123.594 686.153 124.11C688.447 124.569 690.711 124.798 692.947 124.798ZM365.586 150.402H379.002V210H365.586V150.402ZM391.937 166.312C394.116 165.681 396.925 165.108 400.365 164.592C403.805 164.019 407.417 163.732 411.201 163.732C415.042 163.732 418.224 164.248 420.747 165.28C423.327 166.255 425.362 167.659 426.853 169.494C428.344 171.329 429.404 173.507 430.035 176.03C430.666 178.553 430.981 181.362 430.981 184.458V210H418.167V186.006C418.167 181.878 417.622 178.954 416.533 177.234C415.444 175.514 413.408 174.654 410.427 174.654C409.51 174.654 408.535 174.711 407.503 174.826C406.471 174.883 405.554 174.969 404.751 175.084V210H391.937V166.312ZM455.566 200.798C457.916 200.798 459.579 200.569 460.554 200.11C461.528 199.651 462.016 198.763 462.016 197.444C462.016 196.412 461.385 195.523 460.124 194.778C458.862 193.975 456.942 193.087 454.362 192.112C452.355 191.367 450.52 190.593 448.858 189.79C447.252 188.987 445.876 188.041 444.73 186.952C443.583 185.805 442.694 184.458 442.064 182.91C441.433 181.362 441.118 179.499 441.118 177.32C441.118 173.077 442.694 169.723 445.848 167.258C449.001 164.793 453.33 163.56 458.834 163.56C461.586 163.56 464.223 163.818 466.746 164.334C469.268 164.793 471.275 165.309 472.766 165.882L470.53 175.858C469.039 175.342 467.405 174.883 465.628 174.482C463.908 174.081 461.958 173.88 459.78 173.88C455.766 173.88 453.76 174.998 453.76 177.234C453.76 177.75 453.846 178.209 454.018 178.61C454.19 179.011 454.534 179.413 455.05 179.814C455.566 180.158 456.254 180.559 457.114 181.018C458.031 181.419 459.178 181.878 460.554 182.394C463.363 183.426 465.685 184.458 467.52 185.49C469.354 186.465 470.788 187.554 471.82 188.758C472.909 189.905 473.654 191.195 474.056 192.628C474.514 194.061 474.744 195.724 474.744 197.616C474.744 202.088 473.052 205.471 469.67 207.764C466.344 210.057 461.614 211.204 455.48 211.204C451.466 211.204 448.112 210.86 445.418 210.172C442.78 209.484 440.946 208.911 439.914 208.452L442.064 198.046C444.242 198.906 446.478 199.594 448.772 200.11C451.065 200.569 453.33 200.798 455.566 200.798ZM483.89 153.498L496.704 151.434V164.764H512.098V175.428H496.704V191.338C496.704 194.033 497.162 196.183 498.08 197.788C499.054 199.393 500.975 200.196 503.842 200.196C505.218 200.196 506.622 200.081 508.056 199.852C509.546 199.565 510.894 199.193 512.098 198.734L513.904 208.71C512.356 209.341 510.636 209.885 508.744 210.344C506.852 210.803 504.53 211.032 501.778 211.032C498.28 211.032 495.385 210.573 493.092 209.656C490.798 208.681 488.964 207.363 487.588 205.7C486.212 203.98 485.237 201.916 484.664 199.508C484.148 197.1 483.89 194.434 483.89 191.51V153.498ZM538.139 201.056C539.4 201.056 540.604 201.027 541.751 200.97C542.898 200.913 543.815 200.827 544.503 200.712V190.994C543.987 190.879 543.213 190.765 542.181 190.65C541.149 190.535 540.203 190.478 539.343 190.478C538.139 190.478 536.992 190.564 535.903 190.736C534.871 190.851 533.954 191.109 533.151 191.51C532.348 191.911 531.718 192.456 531.259 193.144C530.8 193.832 530.571 194.692 530.571 195.724C530.571 197.731 531.23 199.135 532.549 199.938C533.925 200.683 535.788 201.056 538.139 201.056ZM537.107 163.56C540.891 163.56 544.044 163.99 546.567 164.85C549.09 165.71 551.096 166.943 552.587 168.548C554.135 170.153 555.224 172.103 555.855 174.396C556.486 176.689 556.801 179.241 556.801 182.05V208.71C554.966 209.111 552.415 209.57 549.147 210.086C545.879 210.659 541.923 210.946 537.279 210.946C534.355 210.946 531.689 210.688 529.281 210.172C526.93 209.656 524.895 208.825 523.175 207.678C521.455 206.474 520.136 204.926 519.219 203.034C518.302 201.142 517.843 198.82 517.843 196.068C517.843 193.431 518.359 191.195 519.391 189.36C520.48 187.525 521.914 186.063 523.691 184.974C525.468 183.885 527.504 183.111 529.797 182.652C532.09 182.136 534.47 181.878 536.935 181.878C538.598 181.878 540.06 181.964 541.321 182.136C542.64 182.251 543.7 182.423 544.503 182.652V181.448C544.503 179.269 543.844 177.521 542.525 176.202C541.206 174.883 538.913 174.224 535.645 174.224C533.466 174.224 531.316 174.396 529.195 174.74C527.074 175.027 525.239 175.457 523.691 176.03L522.057 165.71C522.802 165.481 523.72 165.251 524.809 165.022C525.956 164.735 527.188 164.506 528.507 164.334C529.826 164.105 531.202 163.933 532.635 163.818C534.126 163.646 535.616 163.56 537.107 163.56ZM586.448 210.86C582.721 210.803 579.683 210.401 577.332 209.656C575.039 208.911 573.204 207.879 571.828 206.56C570.509 205.184 569.592 203.55 569.076 201.658C568.617 199.709 568.388 197.53 568.388 195.122V145.328L581.202 143.264V192.542C581.202 193.689 581.288 194.721 581.46 195.638C581.632 196.555 581.947 197.329 582.406 197.96C582.922 198.591 583.639 199.107 584.556 199.508C585.473 199.909 586.706 200.167 588.254 200.282L586.448 210.86ZM613.659 210.86C609.932 210.803 606.894 210.401 604.543 209.656C602.25 208.911 600.415 207.879 599.039 206.56C597.72 205.184 596.803 203.55 596.287 201.658C595.828 199.709 595.599 197.53 595.599 195.122V145.328L608.413 143.264V192.542C608.413 193.689 608.499 194.721 608.671 195.638C608.843 196.555 609.158 197.329 609.617 197.96C610.133 198.591 610.85 199.107 611.767 199.508C612.684 199.909 613.917 200.167 615.465 200.282L613.659 210.86ZM620.66 187.726C620.66 183.713 621.262 180.215 622.466 177.234C623.727 174.195 625.361 171.673 627.368 169.666C629.375 167.659 631.668 166.14 634.248 165.108C636.885 164.076 639.58 163.56 642.332 163.56C648.753 163.56 653.827 165.538 657.554 169.494C661.281 173.393 663.144 179.155 663.144 186.78C663.144 187.525 663.115 188.357 663.058 189.274C663.001 190.134 662.943 190.908 662.886 191.596H633.818C634.105 194.233 635.337 196.326 637.516 197.874C639.695 199.422 642.619 200.196 646.288 200.196C648.639 200.196 650.932 199.995 653.168 199.594C655.461 199.135 657.325 198.591 658.758 197.96L660.478 208.366C659.79 208.71 658.873 209.054 657.726 209.398C656.579 209.742 655.289 210.029 653.856 210.258C652.48 210.545 650.989 210.774 649.384 210.946C647.779 211.118 646.173 211.204 644.568 211.204C640.497 211.204 636.943 210.602 633.904 209.398C630.923 208.194 628.429 206.56 626.422 204.496C624.473 202.375 623.011 199.881 622.036 197.014C621.119 194.147 620.66 191.051 620.66 187.726ZM650.76 182.824C650.703 181.735 650.502 180.674 650.158 179.642C649.871 178.61 649.384 177.693 648.696 176.89C648.065 176.087 647.234 175.428 646.202 174.912C645.227 174.396 643.995 174.138 642.504 174.138C641.071 174.138 639.838 174.396 638.806 174.912C637.774 175.371 636.914 176.001 636.226 176.804C635.538 177.607 634.993 178.553 634.592 179.642C634.248 180.674 633.99 181.735 633.818 182.824H650.76ZM700.295 176.116C699.148 175.829 697.801 175.543 696.253 175.256C694.705 174.912 693.042 174.74 691.265 174.74C690.462 174.74 689.487 174.826 688.341 174.998C687.251 175.113 686.42 175.256 685.847 175.428V210H673.033V167.172C675.326 166.369 678.021 165.624 681.117 164.936C684.27 164.191 687.767 163.818 691.609 163.818C692.297 163.818 693.128 163.875 694.103 163.99C695.077 164.047 696.052 164.162 697.027 164.334C698.001 164.449 698.976 164.621 699.951 164.85C700.925 165.022 701.757 165.251 702.445 165.538L700.295 176.116Z" fill="white"/>
</svg>
