<svg width="920" height="281" viewBox="0 0 920 281" fill="none" xmlns="http://www.w3.org/2000/svg">
<rect width="920" height="281" rx="32" fill="#5E5E5E"/>
<path d="M393.188 80.766C393.876 83.1167 394.622 85.7827 395.424 88.764C396.284 91.688 397.173 94.7267 398.09 97.88C399.065 101.033 400.04 104.187 401.014 107.34C401.989 110.493 402.935 113.417 403.852 116.112C404.598 113.188 405.343 110.006 406.088 106.566C406.891 103.126 407.636 99.5713 408.324 95.902C409.012 92.2327 409.672 88.592 410.302 84.98C410.99 81.3107 411.621 77.7847 412.194 74.402H426.126C424.12 84.378 421.798 94.4973 419.16 104.76C416.58 115.023 413.771 124.769 410.732 134H398.434C396.428 128.496 394.478 122.734 392.586 116.714C390.694 110.637 388.831 104.559 386.996 98.482C385.162 104.559 383.327 110.637 381.492 116.714C379.658 122.734 377.737 128.496 375.73 134H363.432C360.394 124.769 357.556 115.023 354.918 104.76C352.338 94.4973 350.045 84.378 348.038 74.402H362.572C363.146 77.7847 363.776 81.3107 364.464 84.98C365.152 88.592 365.869 92.2327 366.614 95.902C367.36 99.5713 368.105 103.126 368.85 106.566C369.653 110.006 370.456 113.188 371.258 116.112C372.29 113.303 373.294 110.321 374.268 107.168C375.243 104.015 376.189 100.861 377.106 97.708C378.024 94.5547 378.855 91.516 379.6 88.592C380.403 85.668 381.12 83.0593 381.75 80.766H393.188ZM446.701 134H433.887V88.764H446.701V134ZM447.905 75.692C447.905 78.0427 447.131 79.906 445.583 81.282C444.093 82.6007 442.315 83.26 440.251 83.26C438.187 83.26 436.381 82.6007 434.833 81.282C433.343 79.906 432.597 78.0427 432.597 75.692C432.597 73.3413 433.343 71.5067 434.833 70.188C436.381 68.812 438.187 68.124 440.251 68.124C442.315 68.124 444.093 68.812 445.583 70.188C447.131 71.5067 447.905 73.3413 447.905 75.692ZM458.747 90.312C460.925 89.6813 463.735 89.108 467.175 88.592C470.615 88.0187 474.227 87.732 478.011 87.732C481.852 87.732 485.034 88.248 487.557 89.28C490.137 90.2547 492.172 91.6593 493.663 93.494C495.153 95.3287 496.214 97.5073 496.845 100.03C497.475 102.553 497.791 105.362 497.791 108.458V134H484.977V110.006C484.977 105.878 484.432 102.954 483.343 101.234C482.253 99.514 480.218 98.654 477.237 98.654C476.319 98.654 475.345 98.7113 474.313 98.826C473.281 98.8833 472.363 98.9693 471.561 99.084V134H458.747V90.312ZM520.311 111.038C520.311 114.994 521.2 118.176 522.977 120.584C524.754 122.992 527.392 124.196 530.889 124.196C532.036 124.196 533.096 124.167 534.071 124.11C535.046 123.995 535.848 123.881 536.479 123.766V100.46C535.676 99.944 534.616 99.514 533.297 99.17C532.036 98.826 530.746 98.654 529.427 98.654C523.35 98.654 520.311 102.782 520.311 111.038ZM549.293 132.538C548.146 132.882 546.828 133.226 545.337 133.57C543.846 133.857 542.27 134.115 540.607 134.344C539.002 134.573 537.339 134.745 535.619 134.86C533.956 135.032 532.351 135.118 530.803 135.118C527.076 135.118 523.751 134.573 520.827 133.484C517.903 132.395 515.438 130.847 513.431 128.84C511.424 126.776 509.876 124.311 508.787 121.444C507.755 118.52 507.239 115.252 507.239 111.64C507.239 107.971 507.698 104.674 508.615 101.75C509.532 98.7687 510.851 96.246 512.571 94.182C514.291 92.118 516.384 90.5413 518.849 89.452C521.372 88.3627 524.238 87.818 527.449 87.818C529.226 87.818 530.803 87.99 532.179 88.334C533.612 88.678 535.046 89.1653 536.479 89.796V69.328L549.293 67.264V132.538ZM603.603 111.296C603.603 114.851 603.087 118.119 602.055 121.1C601.023 124.024 599.533 126.547 597.583 128.668C595.634 130.732 593.283 132.337 590.531 133.484C587.837 134.631 584.798 135.204 581.415 135.204C578.09 135.204 575.051 134.631 572.299 133.484C569.605 132.337 567.283 130.732 565.333 128.668C563.384 126.547 561.865 124.024 560.775 121.1C559.686 118.119 559.141 114.851 559.141 111.296C559.141 107.741 559.686 104.502 560.775 101.578C561.922 98.654 563.47 96.16 565.419 94.096C567.426 92.032 569.777 90.4267 572.471 89.28C575.223 88.1333 578.205 87.56 581.415 87.56C584.683 87.56 587.665 88.1333 590.359 89.28C593.111 90.4267 595.462 92.032 597.411 94.096C599.361 96.16 600.88 98.654 601.969 101.578C603.059 104.502 603.603 107.741 603.603 111.296ZM590.531 111.296C590.531 107.34 589.729 104.244 588.123 102.008C586.575 99.7147 584.339 98.568 581.415 98.568C578.491 98.568 576.227 99.7147 574.621 102.008C573.016 104.244 572.213 107.34 572.213 111.296C572.213 115.252 573.016 118.405 574.621 120.756C576.227 123.049 578.491 124.196 581.415 124.196C584.339 124.196 586.575 123.049 588.123 120.756C589.729 118.405 590.531 115.252 590.531 111.296ZM640.042 108.028C638.895 112.385 637.663 116.714 636.344 121.014C635.083 125.314 633.735 129.643 632.302 134H622.326C621.294 131.592 620.176 128.725 618.972 125.4C617.768 122.075 616.507 118.463 615.188 114.564C613.927 110.608 612.608 106.451 611.232 102.094C609.913 97.6793 608.623 93.236 607.362 88.764H620.864C621.323 90.828 621.81 93.0927 622.326 95.558C622.899 97.966 623.473 100.46 624.046 103.04C624.677 105.62 625.307 108.229 625.938 110.866C626.626 113.446 627.314 115.94 628.002 118.348C628.747 115.825 629.464 113.245 630.152 110.608C630.897 107.971 631.585 105.391 632.216 102.868C632.904 100.288 633.535 97.8227 634.108 95.472C634.739 93.064 635.283 90.828 635.742 88.764H645.03C645.489 90.828 646.005 93.064 646.578 95.472C647.151 97.8227 647.753 100.288 648.384 102.868C649.015 105.391 649.674 107.971 650.362 110.608C651.05 113.245 651.767 115.825 652.512 118.348C653.2 115.94 653.888 113.446 654.576 110.866C655.264 108.229 655.895 105.62 656.468 103.04C657.099 100.46 657.672 97.966 658.188 95.558C658.761 93.0927 659.277 90.828 659.736 88.764H673.066C671.805 93.236 670.486 97.6793 669.11 102.094C667.791 106.451 666.473 110.608 665.154 114.564C663.893 118.463 662.631 122.075 661.37 125.4C660.166 128.725 659.048 131.592 658.016 134H648.04C646.607 129.643 645.202 125.314 643.826 121.014C642.45 116.714 641.189 112.385 640.042 108.028ZM692.947 124.798C695.298 124.798 696.961 124.569 697.935 124.11C698.91 123.651 699.397 122.763 699.397 121.444C699.397 120.412 698.767 119.523 697.505 118.778C696.244 117.975 694.323 117.087 691.743 116.112C689.737 115.367 687.902 114.593 686.239 113.79C684.634 112.987 683.258 112.041 682.111 110.952C680.965 109.805 680.076 108.458 679.445 106.91C678.815 105.362 678.499 103.499 678.499 101.32C678.499 97.0773 680.076 93.7233 683.229 91.258C686.383 88.7927 690.711 87.56 696.215 87.56C698.967 87.56 701.605 87.818 704.127 88.334C706.65 88.7927 708.657 89.3087 710.147 89.882L707.911 99.858C706.421 99.342 704.787 98.8833 703.009 98.482C701.289 98.0807 699.34 97.88 697.161 97.88C693.148 97.88 691.141 98.998 691.141 101.234C691.141 101.75 691.227 102.209 691.399 102.61C691.571 103.011 691.915 103.413 692.431 103.814C692.947 104.158 693.635 104.559 694.495 105.018C695.413 105.419 696.559 105.878 697.935 106.394C700.745 107.426 703.067 108.458 704.901 109.49C706.736 110.465 708.169 111.554 709.201 112.758C710.291 113.905 711.036 115.195 711.437 116.628C711.896 118.061 712.125 119.724 712.125 121.616C712.125 126.088 710.434 129.471 707.051 131.764C703.726 134.057 698.996 135.204 692.861 135.204C688.848 135.204 685.494 134.86 682.799 134.172C680.162 133.484 678.327 132.911 677.295 132.452L679.445 122.046C681.624 122.906 683.86 123.594 686.153 124.11C688.447 124.569 690.711 124.798 692.947 124.798ZM476.48 150.402C477.512 152.294 478.688 154.645 480.006 157.454C481.382 160.206 482.787 163.216 484.22 166.484C485.711 169.695 487.173 172.991 488.606 176.374C490.04 179.757 491.387 182.939 492.648 185.92C493.91 182.939 495.257 179.757 496.69 176.374C498.124 172.991 499.557 169.695 500.99 166.484C502.481 163.216 503.886 160.206 505.204 157.454C506.58 154.645 507.784 152.294 508.816 150.402H521.028C521.602 154.358 522.118 158.801 522.576 163.732C523.092 168.605 523.522 173.708 523.866 179.04C524.268 184.315 524.612 189.618 524.898 194.95C525.242 200.282 525.529 205.299 525.758 210H512.686C512.514 204.209 512.285 197.903 511.998 191.08C511.712 184.257 511.282 177.377 510.708 170.44C509.676 172.848 508.53 175.514 507.268 178.438C506.007 181.362 504.746 184.286 503.484 187.21C502.28 190.134 501.105 192.943 499.958 195.638C498.812 198.275 497.837 200.54 497.034 202.432H487.66C486.858 200.54 485.883 198.275 484.736 195.638C483.59 192.943 482.386 190.134 481.124 187.21C479.92 184.286 478.688 181.362 477.426 178.438C476.165 175.514 475.018 172.848 473.986 170.44C473.413 177.377 472.983 184.257 472.696 191.08C472.41 197.903 472.18 204.209 472.008 210H458.936C459.166 205.299 459.424 200.282 459.71 194.95C460.054 189.618 460.398 184.315 460.742 179.04C461.144 173.708 461.574 168.605 462.032 163.732C462.548 158.801 463.093 154.358 463.666 150.402H476.48ZM554.092 199.766C555.984 199.766 557.532 199.623 558.736 199.336C559.997 198.992 561.001 198.562 561.746 198.046C562.491 197.473 563.007 196.813 563.294 196.068C563.581 195.323 563.724 194.491 563.724 193.574C563.724 191.625 562.807 190.019 560.972 188.758C559.137 187.439 555.984 186.035 551.512 184.544C549.563 183.856 547.613 183.082 545.664 182.222C543.715 181.305 541.966 180.187 540.418 178.868C538.87 177.492 537.609 175.858 536.634 173.966C535.659 172.017 535.172 169.666 535.172 166.914C535.172 164.162 535.688 161.697 536.72 159.518C537.752 157.282 539.214 155.39 541.106 153.842C542.998 152.294 545.291 151.119 547.986 150.316C550.681 149.456 553.719 149.026 557.102 149.026C561.115 149.026 564.584 149.456 567.508 150.316C570.432 151.176 572.84 152.122 574.732 153.154L570.862 163.732C569.199 162.872 567.336 162.127 565.272 161.496C563.265 160.808 560.829 160.464 557.962 160.464C554.751 160.464 552.429 160.923 550.996 161.84C549.62 162.7 548.932 164.047 548.932 165.882C548.932 166.971 549.19 167.889 549.706 168.634C550.222 169.379 550.939 170.067 551.856 170.698C552.831 171.271 553.92 171.816 555.124 172.332C556.385 172.791 557.761 173.278 559.252 173.794C562.348 174.941 565.043 176.087 567.336 177.234C569.629 178.323 571.521 179.613 573.012 181.104C574.56 182.595 575.707 184.343 576.452 186.35C577.197 188.357 577.57 190.793 577.57 193.66C577.57 199.221 575.621 203.55 571.722 206.646C567.823 209.685 561.947 211.204 554.092 211.204C551.455 211.204 549.075 211.032 546.954 210.688C544.833 210.401 542.941 210.029 541.278 209.57C539.673 209.111 538.268 208.624 537.064 208.108C535.917 207.592 534.943 207.105 534.14 206.646L537.924 195.982C539.701 196.957 541.88 197.845 544.46 198.648C547.097 199.393 550.308 199.766 554.092 199.766ZM587.893 150.402H601.309V210H587.893V150.402Z" fill="white"/>
<path d="M58 88.576L117.208 80.5129L117.235 137.624L58.0548 137.961L58 88.576ZM117.18 144.204L117.226 201.364L58.0465 193.228L58.0431 143.82L117.18 144.204ZM124.357 79.4577L202.862 68V136.897L124.357 137.521V79.4577ZM202.88 144.741L202.862 213.328L124.357 202.249L124.248 144.614L202.88 144.741Z" fill="white"/>
</svg>
